<svg width="104" height="104" viewBox="0 0 104 104" fill="none" xmlns="http://www.w3.org/2000/svg">
<g clip-path="url(#clip0_22_3963)">
<path d="M52 100C78.5097 100 100 78.5097 100 52C100 25.4903 78.5097 4 52 4C25.4903 4 4 25.4903 4 52C4 78.5097 25.4903 100 52 100Z" fill="white"/>
<g clip-path="url(#clip1_22_3963)">
<path d="M68.9442 76.4678C69.9794 76.4678 70.8195 75.6277 70.8195 74.5925C70.8195 56.0315 70.9021 57.2692 70.5928 56.7535C70.3293 56.2267 69.6906 55.7729 68.9442 55.7729H35.056C34.4083 55.7729 33.8154 56.1041 33.4718 56.6476C33.054 57.3048 33.1806 56.2099 33.1806 74.5924C33.1806 75.6276 34.0208 76.4677 35.056 76.4677C36.0367 76.4678 67.9596 76.4678 68.9442 76.4678ZM44.4688 67.9952C43.4336 67.9952 42.5935 67.1563 42.5935 66.1198C42.5935 65.0847 43.4336 64.2445 44.4688 64.2445H59.5314C60.5665 64.2445 61.4067 65.0847 61.4067 66.1198C61.4067 67.1563 60.5665 67.9952 59.5314 67.9952H44.4688Z" fill="#2DBE60"/>
<path d="M79.5612 73.6511L83.7619 66.0886C84.4538 64.8441 83.5557 63.3031 82.1229 63.3031H74.5704V74.5925C74.5704 77.6943 72.0462 80.2185 68.9444 80.2185H55.7734V82.1225C55.7734 83.1577 56.6136 83.9979 57.6488 83.9979H82.1229C83.5512 83.9979 84.4557 82.4615 83.7619 81.2111L79.5612 73.6511Z" fill="#2DBE60"/>
<path d="M29.4301 74.5925V63.3031H21.8775C20.4512 63.3031 19.5435 64.8387 20.2385 66.0886L24.4392 73.6511L20.2385 81.2111C19.5457 82.4601 20.4477 83.9979 21.8775 83.9979H46.3517C47.3869 83.9979 48.227 83.1577 48.227 82.1225V80.2185H35.056C31.9543 80.2185 29.4301 77.6943 29.4301 74.5925Z" fill="#2DBE60"/>
<path d="M49.6375 39.059L48.8586 41.4569L50.8977 39.9754C51.5564 39.497 52.4446 39.4972 53.103 39.9754L55.1421 41.4569L54.3633 39.059C54.112 38.2864 54.387 37.44 55.0446 36.9624L57.0837 35.4809H54.5633C53.7507 35.4809 53.0305 34.9583 52.7792 34.1857L52.0004 31.7878L51.2215 34.1857C50.9702 34.9583 50.2501 35.4809 49.4374 35.4809H46.917L48.9561 36.9624C49.6137 37.44 49.8887 38.2864 49.6375 39.059Z" fill="#2DBE60"/>
<path d="M35.0559 52.0225H68.9442C70.6019 52.0225 72.0934 52.7426 73.1236 53.8865C80.7729 38.2895 69.3677 20.002 52 20.002C34.6287 20.002 23.229 38.2931 30.8764 53.8865C31.9066 52.7426 33.3981 52.0225 35.0559 52.0225ZM41.1444 31.7303H48.0744L50.216 25.1391C50.7762 23.4167 53.224 23.4171 53.7841 25.1391L55.9257 31.7303H62.8556C64.6623 31.7303 65.4257 34.0568 63.9571 35.1233L58.3511 39.1965L60.4927 45.7876C61.0543 47.5144 59.0684 48.9463 57.606 47.8843L52 43.8111L46.3941 47.8843C44.9276 48.9492 42.9471 47.5103 43.5073 45.7876L45.6489 39.1965L40.043 35.1233C38.575 34.0572 39.3366 31.7303 41.1444 31.7303Z" fill="#2DBE60"/>
</g>
</g>
<rect x="2" y="2" width="100" height="100" rx="50" stroke="black" stroke-opacity="0.08" stroke-width="4"/>
<defs>
<clipPath id="clip0_22_3963">
<rect x="4" y="4" width="96" height="96" rx="48" fill="white"/>
</clipPath>
<clipPath id="clip1_22_3963">
<rect width="64" height="64" fill="white" transform="translate(20 20)"/>
</clipPath>
</defs>
</svg>
