<?xml version="1.0" encoding="utf-8"?>
<!-- Generator: Adobe Illustrator 21.0.2, SVG Export Plug-In . SVG Version: 6.00 Build 0)  -->
<svg version="1.1" id="Layer_1" xmlns="http://www.w3.org/2000/svg" xmlns:xlink="http://www.w3.org/1999/xlink" x="0px" y="0px"
	 viewBox="0 0 1080 1080" style="enable-background:new 0 0 1080 1080;" xml:space="preserve">
<style type="text/css">
	.st0{fill:#021730;}
	.st1{fill:#FFE47E;}
	.st2{fill:#34CEFE;}
	.st3{opacity:0.56;}
	.st4{fill:#FFFFFF;}
	.st5{fill:url(#SVGID_1_);}
	.st6{fill:url(#SVGID_2_);}
	.st7{fill:url(#SVGID_3_);}
	.st8{fill:url(#SVGID_4_);}
	.st9{fill:url(#SVGID_5_);}
	.st10{fill:url(#SVGID_6_);}
	.st11{fill:url(#SVGID_7_);}
	.st12{fill:url(#SVGID_8_);}
	.st13{clip-path:url(#SVGID_10_);fill:#FFE078;}
	.st14{clip-path:url(#SVGID_10_);}
	.st15{fill:#E2C164;}
	.st16{fill:#231F20;}
	.st17{fill:#D3833B;}
	.st18{fill:#C47435;}
	.st19{fill:#FEFFFE;}
	.st20{fill:url(#SVGID_11_);}
	.st21{fill:url(#SVGID_12_);}
	.st22{fill:url(#SVGID_13_);}
	.st23{fill:url(#SVGID_14_);}
	.st24{fill:url(#SVGID_15_);}
	.st25{fill:url(#SVGID_16_);}
	.st26{fill:url(#SVGID_17_);}
	.st27{fill:url(#SVGID_18_);}
	.st28{fill:url(#SVGID_19_);}
	.st29{fill:url(#SVGID_20_);}
	.st30{fill:url(#SVGID_21_);}
	.st31{fill:url(#SVGID_22_);}
	.st32{fill:url(#SVGID_23_);}
	.st33{fill:url(#SVGID_24_);}
	.st34{fill:url(#SVGID_25_);}
	.st35{fill:url(#SVGID_26_);}
	.st36{fill:url(#SVGID_27_);}
	.st37{fill:url(#SVGID_28_);}
	.st38{fill:url(#SVGID_29_);}
	.st39{fill:url(#SVGID_30_);}
	.st40{fill:url(#SVGID_31_);}
	.st41{fill:url(#SVGID_32_);}
	.st42{fill:url(#SVGID_33_);}
	.st43{fill:url(#SVGID_34_);}
	.st44{fill:url(#SVGID_35_);}
	.st45{fill:url(#SVGID_36_);}
	.st46{fill:url(#SVGID_37_);}
	.st47{fill:url(#SVGID_38_);}
	.st48{fill:url(#SVGID_39_);}
	.st49{fill:url(#SVGID_40_);}
	.st50{fill:url(#SVGID_41_);}
	.st51{fill:url(#SVGID_42_);}
	.st52{fill:url(#SVGID_43_);}
	.st53{fill:url(#SVGID_44_);}
	.st54{fill:url(#SVGID_45_);}
	.st55{fill:url(#SVGID_46_);}
	.st56{fill:url(#SVGID_47_);}
	.st57{fill:url(#SVGID_48_);}
	.st58{fill:url(#SVGID_49_);}
	.st59{fill:url(#SVGID_50_);}
	.st60{fill:url(#SVGID_51_);}
	.st61{fill:url(#SVGID_52_);}
	.st62{fill:url(#SVGID_53_);}
	.st63{fill:url(#SVGID_54_);}
	.st64{fill:url(#SVGID_55_);}
	.st65{fill:url(#SVGID_56_);}
	.st66{fill:url(#SVGID_57_);}
	.st67{fill:url(#SVGID_58_);}
	.st68{fill:url(#SVGID_59_);}
	.st69{fill:url(#SVGID_60_);}
	.st70{fill:url(#SVGID_61_);}
	.st71{fill:url(#SVGID_62_);}
	.st72{fill:url(#SVGID_63_);}
	.st73{fill:url(#SVGID_64_);}
	.st74{fill:url(#SVGID_65_);}
	.st75{fill:url(#SVGID_66_);}
	.st76{fill:url(#SVGID_67_);}
	.st77{fill:url(#SVGID_68_);}
	.st78{fill:url(#SVGID_69_);}
	.st79{fill:url(#SVGID_70_);}
	.st80{fill:url(#SVGID_71_);}
	.st81{fill:url(#SVGID_72_);}
	.st82{fill:url(#SVGID_73_);}
	.st83{fill:url(#SVGID_74_);}
	.st84{fill:url(#SVGID_75_);}
	.st85{fill:url(#SVGID_76_);}
	.st86{fill:url(#SVGID_77_);}
	.st87{fill:url(#SVGID_78_);}
	.st88{fill:url(#SVGID_79_);}
	.st89{fill:url(#SVGID_80_);}
	.st90{fill:#E99D45;}
	.st91{fill:url(#SVGID_81_);}
	.st92{fill:url(#SVGID_82_);}
	.st93{fill:url(#SVGID_83_);}
	.st94{fill:url(#SVGID_84_);}
	.st95{fill:url(#SVGID_85_);}
	.st96{fill:url(#SVGID_86_);}
	.st97{fill:url(#SVGID_87_);}
	.st98{fill:url(#SVGID_88_);}
	.st99{fill:url(#SVGID_89_);}
	.st100{fill:url(#SVGID_90_);}
	.st101{fill:url(#SVGID_91_);}
	.st102{fill:url(#SVGID_92_);}
	.st103{fill:url(#SVGID_93_);}
	.st104{fill:url(#SVGID_94_);}
	.st105{fill:url(#SVGID_95_);}
	.st106{fill:url(#SVGID_96_);}
	.st107{fill:url(#SVGID_97_);}
	.st108{fill:url(#SVGID_98_);}
	.st109{fill:url(#SVGID_99_);}
	.st110{fill:url(#SVGID_100_);}
	.st111{fill:url(#SVGID_101_);}
	.st112{fill:url(#SVGID_102_);}
	.st113{fill:url(#SVGID_103_);}
	.st114{fill:url(#SVGID_104_);}
	.st115{fill:url(#SVGID_105_);}
	.st116{fill:url(#SVGID_106_);}
	.st117{fill:url(#SVGID_107_);}
	.st118{clip-path:url(#SVGID_109_);fill:#FFE078;}
	.st119{clip-path:url(#SVGID_109_);}
	.st120{fill:url(#SVGID_110_);}
	.st121{fill:url(#SVGID_111_);}
	.st122{fill:url(#SVGID_112_);}
	.st123{fill:url(#SVGID_113_);}
	.st124{fill:url(#SVGID_114_);}
	.st125{fill:url(#SVGID_115_);}
	.st126{fill:url(#SVGID_116_);}
	.st127{fill:url(#SVGID_117_);}
	.st128{fill:url(#SVGID_118_);}
	.st129{fill:url(#SVGID_119_);}
	.st130{fill:url(#SVGID_120_);}
	.st131{fill:url(#SVGID_121_);}
	.st132{fill:url(#SVGID_122_);}
	.st133{fill:url(#SVGID_123_);}
	.st134{fill:url(#SVGID_124_);}
	.st135{fill:url(#SVGID_125_);}
	.st136{fill:url(#SVGID_126_);}
	.st137{fill:url(#SVGID_127_);}
	.st138{fill:url(#SVGID_128_);}
	.st139{fill:url(#SVGID_129_);}
	.st140{fill:url(#SVGID_130_);}
	.st141{fill:url(#SVGID_131_);}
	.st142{fill:url(#SVGID_132_);}
	.st143{fill:url(#SVGID_133_);}
	.st144{fill:url(#SVGID_134_);}
	.st145{fill:url(#SVGID_135_);}
	.st146{fill:url(#SVGID_136_);}
	.st147{fill:url(#SVGID_137_);}
	.st148{fill:url(#SVGID_138_);}
	.st149{fill:url(#SVGID_139_);}
	.st150{fill:url(#SVGID_140_);}
	.st151{fill:url(#SVGID_141_);}
	.st152{fill:url(#SVGID_142_);}
	.st153{fill:url(#SVGID_143_);}
	.st154{fill:url(#SVGID_144_);}
	.st155{fill:url(#SVGID_145_);}
	.st156{fill:url(#SVGID_146_);}
	.st157{fill:url(#SVGID_147_);}
	.st158{fill:url(#SVGID_148_);}
	.st159{fill:url(#SVGID_149_);}
	.st160{fill:url(#SVGID_150_);}
	.st161{fill:url(#SVGID_151_);}
	.st162{fill:url(#SVGID_152_);}
	.st163{fill:url(#SVGID_153_);}
	.st164{fill:url(#SVGID_154_);}
	.st165{fill:url(#SVGID_155_);}
	.st166{fill:url(#SVGID_156_);}
	.st167{fill:url(#SVGID_157_);}
	.st168{fill:url(#SVGID_158_);}
	.st169{fill:url(#SVGID_159_);}
	.st170{fill:url(#SVGID_160_);}
	.st171{fill:url(#SVGID_161_);}
	.st172{fill:url(#SVGID_162_);}
	.st173{fill:url(#SVGID_163_);}
	.st174{fill:url(#SVGID_164_);}
	.st175{fill:url(#SVGID_165_);}
	.st176{fill:url(#SVGID_166_);}
	.st177{fill:url(#SVGID_167_);}
	.st178{fill:url(#SVGID_168_);}
	.st179{fill:url(#SVGID_169_);}
	.st180{fill:url(#SVGID_170_);}
	.st181{fill:url(#SVGID_171_);}
	.st182{fill:url(#SVGID_172_);}
	.st183{fill:url(#SVGID_173_);}
	.st184{fill:url(#SVGID_174_);}
	.st185{fill:url(#SVGID_175_);}
	.st186{fill:url(#SVGID_176_);}
	.st187{fill:url(#SVGID_177_);}
	.st188{fill:url(#SVGID_178_);}
	.st189{fill:url(#SVGID_179_);}
	.st190{fill:url(#SVGID_180_);}
	.st191{fill:url(#SVGID_181_);}
	.st192{fill:url(#SVGID_182_);}
	.st193{fill:url(#SVGID_183_);}
	.st194{fill:url(#SVGID_184_);}
	.st195{fill:url(#SVGID_185_);}
	.st196{fill:url(#SVGID_186_);}
	.st197{fill:url(#SVGID_187_);}
	.st198{fill:url(#SVGID_188_);}
	.st199{fill:url(#SVGID_189_);}
	.st200{fill:url(#SVGID_190_);}
	.st201{fill:url(#SVGID_191_);}
	.st202{fill:url(#SVGID_192_);}
	.st203{fill:url(#SVGID_193_);}
	.st204{fill:url(#SVGID_194_);}
	.st205{fill:url(#SVGID_195_);}
	.st206{fill:url(#SVGID_196_);}
	.st207{fill:url(#SVGID_197_);}
	.st208{fill:url(#SVGID_198_);}
</style>
<rect x="-68" y="-132" class="st0" width="1332" height="1420"/>
<g>
	<g>
		<g>
			<path class="st1" d="M528.3,719.5c-100.6,0-182.5-79.6-182.5-177.4c0-97.8,81.9-177.4,182.5-177.4
				c100.6,0,182.5,79.6,182.5,177.4C710.8,639.9,629,719.5,528.3,719.5z M528.3,371.7c-96.8,0-175.5,76.4-175.5,170.4
				c0,94,78.7,170.4,175.5,170.4S703.8,636,703.8,542.1C703.8,448.1,625.1,371.7,528.3,371.7z"/>
		</g>
		<g>
			<path class="st1" d="M435.2,446.2l-18.2-20c18.6-16.9,41.2-29.5,65.5-36.4l7.4,26C469.7,421.6,450.7,432.1,435.2,446.2z"/>
		</g>
		<g>
			<path class="st2" d="M416.7,467.1l-21.9-15.7c4-5.6,8.4-11,13.1-16l19.7,18.4C423.7,458,420,462.5,416.7,467.1z"/>
		</g>
		<g>
			<path class="st1" d="M398,504.9l-25.8-7.8c3.6-12,8.8-23.6,15.3-34.5l23.2,13.8C405.2,485.4,401,495,398,504.9z"/>
		</g>
		<g>
			<path class="st2" d="M392.8,532.7l-26.9-1.9c0.5-6.2,1.3-12.5,2.5-18.6l26.5,5.2C393.9,522.4,393.2,527.6,392.8,532.7z"/>
		</g>
		<g>
			<path class="st2" d="M366.8,562.6c-0.9-6.8-1.4-13.7-1.4-20.5h27c0,5.7,0.4,11.4,1.1,17L366.8,562.6z"/>
		</g>
		<g>
			<path class="st1" d="M384.9,617.1c-6.8-12.3-11.9-25.5-15.1-39.1l26.3-6.3c2.7,11.2,6.9,22.1,12.5,32.3L384.9,617.1z"/>
		</g>
		<g>
			<path class="st2" d="M406.2,646.9c-5.1-5.6-9.8-11.7-14.1-17.9l22.4-15.1c3.5,5.2,7.4,10.2,11.7,14.9L406.2,646.9z"/>
		</g>
		<g>
			<path class="st1" d="M483,694.4c-25.2-7.1-48.6-20.3-67.6-38.1l18.5-19.7c15.9,14.9,35.4,25.9,56.4,31.8L483,694.4z"/>
		</g>
		<g>
			<path class="st2" d="M528.3,700.7c-9.7,0-19.3-0.8-28.8-2.5l4.6-26.6c15.8,2.8,32.5,2.8,48.3,0l4.6,26.6
				C547.7,699.8,538,700.7,528.3,700.7z"/>
		</g>
		<g>
			<path class="st1" d="M574.3,694.2l-7.4-26c21-6,40.5-17.1,56.3-32l18.5,19.6C622.8,673.8,599.5,687,574.3,694.2z"/>
		</g>
		<g>
			<path class="st2" d="M650.8,646.5l-20.1-18.1c4.3-4.7,8.2-9.8,11.7-15.1l22.5,15C660.7,634.7,656,640.8,650.8,646.5z"/>
		</g>
		<g>
			<path class="st1" d="M671.7,617.2l-23.6-13.1c5.6-10.1,9.8-20.8,12.5-31.9l26.2,6.3C683.6,592,678.5,605,671.7,617.2z"/>
		</g>
		<g class="st3">
			<path class="st4" d="M689.8,562.5L663,559c0.7-5.4,1.1-11,1.1-16.5l27,0.1C691.1,549.3,690.7,556,689.8,562.5z"/>
		</g>
		<g class="st3">
			<path class="st4" d="M663.9,533.2c-0.4-5.2-1-10.4-2-15.4l26.5-5.1c1.2,6.1,2,12.4,2.4,18.7L663.9,533.2z"/>
		</g>
		<g>
			<path class="st1" d="M659,506c-3-10.2-7.3-20.1-12.7-29.3l23.2-13.7c6.6,11.2,11.8,23.1,15.4,35.4L659,506z"/>
		</g>
		<g class="st3">
			<path class="st4" d="M640.1,467.3c-3.3-4.7-7-9.2-10.9-13.4l19.8-18.4c4.7,5.1,9.1,10.5,13.1,16.1L640.1,467.3z"/>
		</g>
		<g>
			<path class="st1" d="M622,446.8c-15.6-14.4-34.7-25.1-55.3-31l7.4-26c24.6,7,47.5,19.8,66.2,37.1L622,446.8z"/>
		</g>
		<g>
			<path class="st2" d="M503.4,412.7l-4.8-26.6c19.5-3.5,40-3.5,59.5,0l-4.8,26.6C536.9,409.8,519.7,409.8,503.4,412.7z"/>
		</g>
		<g>
			<linearGradient id="SVGID_1_" gradientUnits="userSpaceOnUse" x1="528.3209" y1="407.8268" x2="528.3209" y2="682.3787">
				<stop  offset="0" style="stop-color:#34CEFE"/>
				<stop  offset="0.3317" style="stop-color:#34CEFE"/>
				<stop  offset="0.4257" style="stop-color:#2295C3"/>
				<stop  offset="1" style="stop-color:#021732"/>
			</linearGradient>
			<path class="st5" d="M528.3,424c-67,0-121.4,53-121.4,118.1s54.5,118.1,121.4,118.1c67,0,121.4-53,121.4-118.1
				S595.3,424,528.3,424z M528.3,653.2c-63.1,0-114.4-49.8-114.4-111.1c0-61.3,51.3-111.1,114.4-111.1s114.4,49.8,114.4,111.1
				C642.8,603.3,591.4,653.2,528.3,653.2z"/>
			<path class="st1" d="M331.7,426.5l-8.6-5.1c-18.2,30.9-29,64.8-32,100.6l10,0.8C304,488.6,314.3,456.1,331.7,426.5z"/>
			<path class="st1" d="M291.9,569.9c4.1,35.1,15.6,68.1,34.4,98l8.5-5.3c-17.9-28.7-29-60.3-32.9-93.9L291.9,569.9z"/>
			<path class="st1" d="M442.7,764.2c19.4,7.5,39.7,12.4,60.5,14.6l1-9.9c-19.9-2.1-39.3-6.8-57.9-13.9L442.7,764.2z"/>
			<path class="st1" d="M558.1,768.1l1.3,9.9c24.9-3.3,49-10.4,71.7-21.2l-4.3-9C605.1,758.2,582,765,558.1,768.1z"/>
			<path class="st1" d="M728.1,652l8.8,4.8c15.2-27.6,24.6-57.4,28-88.7L755,567C751.7,597,742.7,625.6,728.1,652z"/>
			<path class="st1" d="M765.7,524.7c-2.2-30.6-10.2-59.9-23.6-87.4l-9,4.4c12.9,26.3,20.5,54.4,22.6,83.7L765.7,524.7z"/>
			<path class="st1" d="M615.8,320.7c-15.5-6.1-31.8-10.7-48.3-13.4l-1.6,9.9c15.8,2.6,31.4,6.9,46.3,12.8L615.8,320.7z"/>
			<linearGradient id="SVGID_2_" gradientUnits="userSpaceOnUse" x1="342.6494" y1="407.8268" x2="342.6494" y2="682.3787">
				<stop  offset="0" style="stop-color:#34CEFE"/>
				<stop  offset="0.3317" style="stop-color:#34CEFE"/>
				<stop  offset="0.4257" style="stop-color:#2295C3"/>
				<stop  offset="1" style="stop-color:#021732"/>
			</linearGradient>
			<path class="st6" d="M320.3,502.7l8.7,1.7c5.7-30.1,17.8-57.9,35.9-82.5l-7.2-5.3C338.9,442.3,326.2,471.2,320.3,502.7z"/>
			<linearGradient id="SVGID_3_" gradientUnits="userSpaceOnUse" x1="331.3109" y1="407.8268" x2="331.3109" y2="682.3787">
				<stop  offset="0" style="stop-color:#34CEFE"/>
				<stop  offset="0.3317" style="stop-color:#34CEFE"/>
				<stop  offset="0.4257" style="stop-color:#2295C3"/>
				<stop  offset="1" style="stop-color:#021732"/>
			</linearGradient>
			<path class="st7" d="M316.6,545.1c0.4,31.4,7.6,61.7,21.4,89.9l8-3.9c-13.2-27.1-20.1-56-20.5-86.2L316.6,545.1z"/>
			<linearGradient id="SVGID_4_" gradientUnits="userSpaceOnUse" x1="459.2325" y1="407.8268" x2="459.2325" y2="682.3787">
				<stop  offset="0" style="stop-color:#34CEFE"/>
				<stop  offset="0.3317" style="stop-color:#34CEFE"/>
				<stop  offset="0.4257" style="stop-color:#2295C3"/>
				<stop  offset="1" style="stop-color:#021732"/>
			</linearGradient>
			<path class="st8" d="M486.2,740.7c-17.4-3.7-34.2-9.6-50-17.7l-4,7.9c16.5,8.4,34,14.6,52.2,18.4L486.2,740.7z"/>
			<linearGradient id="SVGID_5_" gradientUnits="userSpaceOnUse" x1="566.8464" y1="407.8268" x2="566.8464" y2="682.3787">
				<stop  offset="0" style="stop-color:#34CEFE"/>
				<stop  offset="0.3317" style="stop-color:#34CEFE"/>
				<stop  offset="0.4257" style="stop-color:#2295C3"/>
				<stop  offset="1" style="stop-color:#021732"/>
			</linearGradient>
			<path class="st9" d="M596.7,733.3c-20.1,7.2-41.2,11.2-62.6,11.7l0.2,8.9c22.4-0.6,44.4-4.7,65.4-12.2L596.7,733.3z"/>
			<linearGradient id="SVGID_6_" gradientUnits="userSpaceOnUse" x1="715.3295" y1="407.8268" x2="715.3295" y2="682.3787">
				<stop  offset="0" style="stop-color:#34CEFE"/>
				<stop  offset="0.3317" style="stop-color:#34CEFE"/>
				<stop  offset="0.4257" style="stop-color:#2295C3"/>
				<stop  offset="1" style="stop-color:#021732"/>
			</linearGradient>
			<path class="st10" d="M726.8,585.1c-5.6,26.3-16.3,50.7-31.6,72.8l7.3,5.1c16-23,27.1-48.6,33-76L726.8,585.1z"/>
			<linearGradient id="SVGID_7_" gradientUnits="userSpaceOnUse" x1="729.5799" y1="407.8268" x2="729.5799" y2="682.3787">
				<stop  offset="0" style="stop-color:#34CEFE"/>
				<stop  offset="0.3317" style="stop-color:#34CEFE"/>
				<stop  offset="0.4257" style="stop-color:#2295C3"/>
				<stop  offset="1" style="stop-color:#021732"/>
			</linearGradient>
			<path class="st11" d="M731.2,548.3l8.9,0.3c0.8-27.3-3.5-54-12.9-79.5l-8.4,3.1C727.9,496.5,732.1,522.2,731.2,548.3z"/>
			<linearGradient id="SVGID_8_" gradientUnits="userSpaceOnUse" x1="604.2288" y1="407.8268" x2="604.2288" y2="682.3787">
				<stop  offset="0" style="stop-color:#34CEFE"/>
				<stop  offset="0.3317" style="stop-color:#34CEFE"/>
				<stop  offset="0.4257" style="stop-color:#2295C3"/>
				<stop  offset="1" style="stop-color:#021732"/>
			</linearGradient>
			<path class="st12" d="M582.3,346.5c13.8,3.8,27.1,9,39.8,15.6l4.1-7.9c-13.2-6.9-27.2-12.3-41.5-16.3L582.3,346.5z"/>
		</g>
	</g>
	<g>
		<g>
			<defs>
				<path id="SVGID_9_" d="M752.9,718.7l-5.5,27.3c-1.2,6.2-5.7,11.2-11.6,13.2l-26.3,8.9c-6,2-12.5,0.7-17.3-3.5l-20.9-18.4
					c-4.7-4.2-6.9-10.5-5.6-16.7l5.5-27.3c1.2-6.2,5.7-11.2,11.6-13.2l26.3-8.9c6-2,12.5-0.7,17.3,3.5l20.9,18.4
					C752,706.2,754.1,712.6,752.9,718.7z"/>
			</defs>
			<use xlink:href="#SVGID_9_"  style="overflow:visible;fill:#FFE078;"/>
			<clipPath id="SVGID_10_">
				<use xlink:href="#SVGID_9_"  style="overflow:visible;"/>
			</clipPath>
			<path class="st13" d="M752.9,718.7l-5.5,27.3c-1.2,6.2-5.7,11.2-11.6,13.2l-26.3,8.9c-6,2-12.5,0.7-17.3-3.5l-20.9-18.4
				c-4.7-4.2-6.9-10.5-5.6-16.7l5.5-27.3c1.2-6.2,5.7-11.2,11.6-13.2l26.3-8.9c6-2,12.5-0.7,17.3,3.5l20.9,18.4
				C752,706.2,754.1,712.6,752.9,718.7z"/>
			<g class="st14">
				<path class="st15" d="M702.9,745.5c-2.4,11.8-11.6,15-20.5,7.1c-8.9-7.9-14.3-24.1-11.9-35.9c2.4-11.8,11.6-15,20.5-7.1
					C699.9,717.5,705.3,733.6,702.9,745.5z"/>
			</g>
			<g class="st14">
				<path class="st15" d="M730.3,715c-11.3,3.9-27.8,0.6-36.8-7.4c-8.9-7.9-7-17.6,4.3-21.5s27.8-0.6,36.8,7.4
					C743.5,701.5,741.6,711.1,730.3,715z"/>
			</g>
			<g class="st14">
				<path class="st15" d="M748.1,732.2c-2.4,11.8-13.5,24.6-24.8,28.5s-18.6-2.6-16.2-14.4c2.4-11.8,13.5-24.6,24.8-28.5
					C743.2,713.9,750.5,720.4,748.1,732.2z"/>
			</g>
		</g>
		<path class="st16" d="M684.4,718.6c-0.5,2.7-2.6,3.4-4.7,1.6c-2-1.8-3.3-5.4-2.7-8.1s2.6-3.4,4.7-1.6
			C683.7,712.3,684.9,716,684.4,718.6z"/>
		<path class="st16" d="M695.2,750.7c-0.5,2.7-2.6,3.4-4.7,1.6c-2-1.8-3.3-5.4-2.7-8.1c0.5-2.7,2.6-3.4,4.7-1.6
			C694.5,744.4,695.8,748,695.2,750.7z"/>
		<path class="st16" d="M727.1,731.3c-0.5,2.7-3.1,5.5-5.6,6.4c-2.6,0.9-4.2-0.6-3.7-3.3s3.1-5.5,5.6-6.4
			C726,727.2,727.6,728.7,727.1,731.3z"/>
		<path class="st16" d="M722.8,752.7c-0.5,2.7-3.1,5.5-5.6,6.4c-2.6,0.9-4.2-0.6-3.7-3.3c0.5-2.7,3.1-5.5,5.6-6.4
			C721.7,748.5,723.4,750,722.8,752.7z"/>
		<path class="st16" d="M744,723.6c-0.5,2.7-3.1,5.5-5.6,6.4c-2.6,0.9-4.2-0.6-3.7-3.3c0.5-2.7,3.1-5.5,5.6-6.4S744.5,721,744,723.6
			z"/>
		<path class="st16" d="M739.7,744.9c-0.5,2.7-3.1,5.5-5.6,6.4c-2.6,0.9-4.2-0.6-3.7-3.3s3.1-5.5,5.6-6.4
			C738.6,740.8,740.2,742.3,739.7,744.9z"/>
		<path class="st16" d="M716.8,691.8c-2.3,0.8-5.6,0.1-7.4-1.5c-1.8-1.6-1.4-3.5,0.9-4.3c2.3-0.8,5.6-0.1,7.4,1.5
			C719.4,689.1,719,691.1,716.8,691.8z"/>
		<path class="st16" d="M726.2,700.1c-2.3,0.8-5.6,0.1-7.4-1.5c-1.8-1.6-1.4-3.5,0.9-4.3c2.3-0.8,5.6-0.1,7.4,1.5
			C728.9,697.4,728.5,699.4,726.2,700.1z"/>
		<path class="st16" d="M735.6,708.4c-2.3,0.8-5.6,0.1-7.4-1.5c-1.8-1.6-1.4-3.5,0.9-4.3c2.3-0.8,5.6-0.1,7.4,1.5
			C738.3,705.7,737.9,707.6,735.6,708.4z"/>
		<path class="st16" d="M701.5,698.3c-2.3,0.8-5.6,0.1-7.4-1.5c-1.8-1.6-1.4-3.5,0.9-4.3c2.3-0.8,5.6-0.1,7.4,1.5
			C704.2,695.6,703.8,697.5,701.5,698.3z"/>
		<path class="st16" d="M710.9,706.6c-2.3,0.8-5.6,0.1-7.4-1.5c-1.8-1.6-1.4-3.5,0.9-4.3c2.3-0.8,5.6-0.1,7.4,1.5
			C713.6,703.9,713.2,705.8,710.9,706.6z"/>
		<path class="st16" d="M720.4,714.9c-2.3,0.8-5.6,0.1-7.4-1.5c-1.8-1.6-1.4-3.5,0.9-4.3c2.3-0.8,5.6-0.1,7.4,1.5
			C723,712.2,722.6,714.1,720.4,714.9z"/>
	</g>
	<g>
		<path class="st17" d="M318.7,400.5l-0.1,7.7c0,0.4-0.2,0.6-0.5,0.7c-2.7,1-6.5,0.8-8.7-1.1c-1-0.8-1.6-2.3-1.8-4.3
			c-0.2-2-0.1-4,0.3-5.9C309.8,401.1,313.4,402,318.7,400.5L318.7,400.5z"/>
		<path class="st18" d="M380.7,402.9c0.6,2.3,0.2,4.3-1.1,5.8c-1.5,1.9-6.5,2-8.5,0.4c-0.7-0.6-1.1-1.5-1.1-2.8
			c-0.1-2.2-0.1-4.3,0.2-6.5C373.9,400.2,377.4,401.2,380.7,402.9L380.7,402.9z"/>
		<path class="st18" d="M719,429.5c4.1-1.3,7.6-2.5,10.5-3.9c4-1.8,7.6-4.4,10.7-7.6c0.6,0.6,1.1,1.5,1.5,2.8c0.1,0.3,0,0.6-0.3,0.8
			c-6.7,4.4-13.9,7.7-21.6,9.9c-0.3,0.1-0.5,0-0.4-0.4C719.4,430.5,719.3,430,719,429.5L719,429.5z"/>
		<path class="st19" d="M358.5,325.1l-27.6,0.1l0-4c0-0.4,0.2-0.5,0.5-0.5l26.6-0.4c0.4,0,0.5,0.2,0.5,0.5V325.1L358.5,325.1z"/>
		<path class="st19" d="M407.9,329.8l-14.9,0l0.2-3.1c0-0.4,0.2-0.6,0.6-0.6h13.5c0.3,0,0.5,0.2,0.5,0.5L407.9,329.8L407.9,329.8z"
			/>
		<polygon class="st19" points="407.8,361 407.7,366.1 392.9,366.1 392.9,361 407.8,361 		"/>
		<path class="st19" d="M871,532.1c1.8-0.1,3,0.1,3.8,0.4c2.8,1.3,2.7,2.2-0.2,3c-1.5,0.4-3.4,1.1-5.9,2.1c-0.6,0.2-1.2,0.3-1.8,0.2
			c-0.7-0.1-1.1-0.5-1-1.1C867.1,534.6,868.9,533,871,532.1L871,532.1z"/>
		<path class="st19" d="M202.8,533.7c0.1-0.1,0.3,0,0.4,0.1l0.1,0.1c0.6,1,0.4,2.2-0.6,2.8l-0.1,0.1c-0.9,0.6-2.1,0.3-2.7-0.7
			l-0.1-0.1c-0.1-0.1-0.1-0.3,0.1-0.4L202.8,533.7L202.8,533.7z"/>
		<g>
			<linearGradient id="SVGID_11_" gradientUnits="userSpaceOnUse" x1="300.4622" y1="238.058" x2="300.4622" y2="871.1401">
				<stop  offset="0" style="stop-color:#34CEFE"/>
				<stop  offset="0.3317" style="stop-color:#34CEFE"/>
				<stop  offset="0.4257" style="stop-color:#2295C3"/>
				<stop  offset="1" style="stop-color:#021732"/>
			</linearGradient>
			<path class="st20" d="M305.8,726.9l-10.9,0.1c-0.3,0-0.5,0.4-0.3,0.6l11.1,15.4c0.2,0.3,0.7,0.2,0.7-0.2l-0.2-15.6
				C306.2,727.1,306,726.9,305.8,726.9z"/>
			<linearGradient id="SVGID_12_" gradientUnits="userSpaceOnUse" x1="621.2059" y1="238.058" x2="621.2059" y2="871.1401">
				<stop  offset="0" style="stop-color:#34CEFE"/>
				<stop  offset="0.3317" style="stop-color:#34CEFE"/>
				<stop  offset="0.4257" style="stop-color:#2295C3"/>
				<stop  offset="1" style="stop-color:#021732"/>
			</linearGradient>
			<path class="st21" d="M643.9,820.5l-2.7-5.3c-0.1-0.2-0.2-0.2-0.4-0.2c-9.5,3.7-19.1,6.9-28.9,9.5c-4.5,1.2-8.2,2.8-12.4,3.9
				c-1,0.3-1.2,0.8-0.6,1.7l2.7,3.7c0.4,0.5,1,0.7,1.6,0.6c1-0.2,2-0.4,3-0.7c13.1-3.2,25.6-7.5,37.7-13
				C643.9,820.7,644,820.6,643.9,820.5z"/>
			<linearGradient id="SVGID_13_" gradientUnits="userSpaceOnUse" x1="286.1808" y1="238.058" x2="286.1808" y2="871.1401">
				<stop  offset="0" style="stop-color:#34CEFE"/>
				<stop  offset="0.3317" style="stop-color:#34CEFE"/>
				<stop  offset="0.4257" style="stop-color:#2295C3"/>
				<stop  offset="1" style="stop-color:#021732"/>
			</linearGradient>
			<path class="st22" d="M305.7,720.6c0.3,0,0.5-0.1,0.5-0.4l0.2-9.5c0-0.3-0.2-0.5-0.5-0.5c-6.3-0.3-12.1-0.8-17.4-1.7
				c-2.8-0.5-5.1-1.1-6.7-2c-1.5-0.8-1.4-1.4,0.2-1.8c2.2-0.6,5-0.8,8.4-0.7c5.5,0.2,10.7,0.5,15.6,1c0.2,0,0.4-0.1,0.4-0.3v-8.4
				c0-0.1-0.1-0.2-0.2-0.2c-8.6-0.3-17.2-1.1-26-2.3c-2.2-0.3-3.6-0.3-4.7-2.5c-0.2-0.4,0-0.9,0.4-1.1c1.7-0.9,3.3-1.3,4.9-1.3
				c7.9-0.1,16.2,0.4,24.9,1.3c0.4,0,0.7-0.3,0.7-0.6v-6.8c0-0.6-0.3-0.9-0.9-0.9h-38.8c-0.4,0-0.7,0.5-0.5,0.8
				c6.3,12.7,13.8,25.1,22.4,37.3c0.2,0.2,0.4,0.4,0.7,0.3C294.6,719.8,300.1,719.8,305.7,720.6z"/>
			<linearGradient id="SVGID_14_" gradientUnits="userSpaceOnUse" x1="455.109" y1="238.058" x2="455.109" y2="871.1401">
				<stop  offset="0" style="stop-color:#34CEFE"/>
				<stop  offset="0.3317" style="stop-color:#34CEFE"/>
				<stop  offset="0.4257" style="stop-color:#2295C3"/>
				<stop  offset="1" style="stop-color:#021732"/>
			</linearGradient>
			<path class="st23" d="M410.4,297.8c0.3,0.4,0.2,0.9-0.2,1.2l-6.7,5.9c-0.7,0.7-0.6,1,0.4,1.1c5.1,0.3,11,0.4,15.4-1.4
				c1.5-0.6,2.5-1.1,3-1.5c1.7-1.3,3.2-2.6,4.7-3.8c0.3-0.2,0.5-0.2,0.6,0.1l5.8,11.5c0.3,0.5,0.9,0.7,1.4,0.5l5.8-2.9
				c0.7-0.3,0.9-0.8,0.5-1.5l-8.3-18.4c-0.1-0.3-0.4-0.4-0.7-0.3l-13.4,6c-0.7,0.3-1.2,0.1-1.6-0.5l-2.6-4c-0.3-0.5-0.1-1.2,0.4-1.5
				l19.6-8.8c1.5-0.7,3.2,0.1,3.8,1.6l4,11.3c0.2,0.6,0.8,0.8,1.4,0.6l6.9-3.5c0.3-0.2,0.4-0.4,0.3-0.8l-8.3-18.6
				c-0.3-0.6-1-1-1.7-0.8c-2.9,0.8-5.2,1.5-7.8,2.7c-8.8,4.1-16.5,7.7-23.1,10.9c-0.2,0.1-0.4,0-0.5-0.2l-3.3-5.1
				c-0.2-0.2-0.1-0.5,0.2-0.7c11.8-6.4,24.5-12.2,38.2-17.3c0.5-0.2,1.1,0.1,1.3,0.5l14.9,33.4c0.1,0.3,0,0.5-0.2,0.6l-13.1,4.9
				c-1.2,0.5-1.8,1.3-1.6,2.6l0.5,2.9c0.2,1.3,0.9,1.7,2.1,1.3c18-5.4,31.4-9.6,49-13.4c5.3-0.8,10.6-1.7,15.9-2.7
				c0.9-0.2,1.2-0.6,1-1.2c-0.1-0.2-0.2-0.3-0.4-0.4c-4.4-1-9-1.5-13.9-1.5c-1.4,0-2.6-0.6-3.6-1.3c-1.8-1.3-5-3.6-9.6-6.9
				c-0.9-0.7-1.2-0.4-0.9,0.6c0.4,1.5,0.8,3.1,1,4.8c0.5,4-2.1,3.5-4.4,4.8c-1.1-0.4-1.8-1.4-2.4-2.8c-3.2-8.6-5.6-15.8-7.2-21.4
				c-0.3-1.2-0.7-2.2-1-2.9c-0.3-0.9-1-1.2-1.8-0.9l-5.7,1.6c-0.5,0.2-0.8,0.7-0.6,1.2l11,26.5c0.2,0.4,0,0.6-0.3,0.7l-5.8,1.6
				c-0.3,0.1-0.7-0.1-0.8-0.4l-14.1-33.7c-0.1-0.3,0-0.7,0.3-0.8l13.2-5.5c0.5-0.2,0.7-0.7,0.5-1.2l-2.2-5.3
				c-0.1-0.2-0.3-0.3-0.5-0.2c-7,2.4-13.7,4.6-20.1,6.6c-4.2,1.3-12,4.5-23.4,9.6c-10.1,4.5-18.5,9-25.4,13.5
				c-0.3,0.2-0.4,0.6-0.2,0.9L410.4,297.8z"/>
			<linearGradient id="SVGID_15_" gradientUnits="userSpaceOnUse" x1="631.5854" y1="238.058" x2="631.5854" y2="871.1401">
				<stop  offset="0" style="stop-color:#34CEFE"/>
				<stop  offset="0.3317" style="stop-color:#34CEFE"/>
				<stop  offset="0.4257" style="stop-color:#2295C3"/>
				<stop  offset="1" style="stop-color:#021732"/>
			</linearGradient>
			<path class="st24" d="M579,292.3c14.9,2.8,29.2,6.8,43,12.1c1.8,0.7,5.9,2.2,12.1,4.4c0.7,0.3,1.3,0.1,1.7-0.5l1.5-2
				c0.5-0.7,0.4-1.3-0.5-1.6l-5.9-2.4c-0.4-0.2-0.7-0.6-0.7-1c0-1.5-0.1-2-1.5-2.5c-5.4-1.9-9.8-3.5-13.2-4.8
				c-0.7-0.3-0.9-0.7-0.6-1.4l14.1-32.5c0.2-0.5,0.7-0.7,1.2-0.6c1.2,0.3,2.6,0.7,4.2,1.3c14.1,5.3,27.5,11.2,40.4,17.5
				c0.7,0.3,1.3,0.4,2,0.2l6.9-1.9c0.8-0.2,0.9-0.5,0.1-0.9c-23-12.8-47.3-22.8-72.7-30c-1.2-0.3-1.9,0.1-2.1,1.3l-0.9,4.7
				c-0.2,1,0.2,1.7,1.2,2l11.8,3.7c0.3,0.1,0.4,0.4,0.3,0.6l-12.8,31.5c-0.5,1.2-1.8,1.9-3.1,1.7l-2.4-0.5c-1.6-0.3-2.1-1.2-1.5-2.7
				l9.8-24.1c0.4-0.9,0.1-1.4-0.8-1.6l-5-1c-0.7-0.1-1.3,0.3-1.5,0.9c-2.9,9.3-5.8,17.3-8.6,24.2c-0.4,0.9-1.1,1.5-2.1,1.6
				c-3.6,0.5-5.2-1.2-4.7-5c0.1-0.8-0.1-0.9-0.6-0.3c-2.9,3.8-6.4,5.6-9.4,8.8C578.5,291.8,578.7,292.2,579,292.3z"/>
			<linearGradient id="SVGID_16_" gradientUnits="userSpaceOnUse" x1="634.1396" y1="238.058" x2="634.1396" y2="871.1401">
				<stop  offset="0" style="stop-color:#34CEFE"/>
				<stop  offset="0.3317" style="stop-color:#34CEFE"/>
				<stop  offset="0.4257" style="stop-color:#2295C3"/>
				<stop  offset="1" style="stop-color:#021732"/>
			</linearGradient>
			<path class="st25" d="M643.3,271.8c0.2-0.2,0.1-0.4-0.2-0.5l-9.2-2.4c-0.1,0-0.1,0-0.2,0.1l-8.8,19c-0.2,0.5,0,1,0.5,1.2l8.5,3.4
				c0.7,0.3,1.2,0.1,1.5-0.6l1.4-2.9c0.2-0.4,0-0.9-0.4-1c-0.5-0.2-0.9-0.4-1-0.6c-0.4-0.5-0.4-1.4,0.1-2.2L643.3,271.8z"/>
			<linearGradient id="SVGID_17_" gradientUnits="userSpaceOnUse" x1="655.9603" y1="238.058" x2="655.9603" y2="871.1401">
				<stop  offset="0" style="stop-color:#34CEFE"/>
				<stop  offset="0.3317" style="stop-color:#34CEFE"/>
				<stop  offset="0.4257" style="stop-color:#2295C3"/>
				<stop  offset="1" style="stop-color:#021732"/>
			</linearGradient>
			<path class="st26" d="M665.6,282.7l-14.9-6.9c-0.8-0.4-1.8-0.1-2.2,0.6l-2.1,3.1c-0.4,0.6-0.3,1,0.4,1.3l11.8,4.8
				c0.5,0.2,0.9,0.2,1.4,0l5.6-2.4C665.8,283.1,665.8,282.8,665.6,282.7z"/>
			<linearGradient id="SVGID_18_" gradientUnits="userSpaceOnUse" x1="378.7025" y1="238.0725" x2="378.7025" y2="871.007">
				<stop  offset="0" style="stop-color:#34CEFE"/>
				<stop  offset="0.3317" style="stop-color:#34CEFE"/>
				<stop  offset="0.4257" style="stop-color:#2295C3"/>
				<stop  offset="1" style="stop-color:#021732"/>
			</linearGradient>
			<path class="st27" d="M399.6,295.8c-4.3-5.1-8.1-10.3-11.4-15.7c-0.2-0.3-0.6-0.4-0.8-0.2c-7.6,4.8-15.1,9.9-22.4,15.1
				c-1.8,1.3-3.8,3.2-6.2,5.7c-1.1,1.2-1.2,2.2-0.9,3.7c0.1,0.4,0.4,0.7,0.8,0.7l17.8,0c0.4,0,0.9,0,1.3,0.1l7,1.6
				c0.3,0.1,0.6,0,0.8-0.2l13.9-10C399.8,296.4,399.8,296.1,399.6,295.8z M387,297.6l-1.3,0.6c-2.7,1.3-5.6,0.9-6.4-0.8l-0.6-1.2
				c-0.3-0.7,0-1.5,0.7-1.9l8.7-4.1c0.7-0.3,1.5,0,1.9,0.7l0.6,1.2C391.2,293.9,389.7,296.3,387,297.6z"/>
			<linearGradient id="SVGID_19_" gradientUnits="userSpaceOnUse" x1="646.2139" y1="238.058" x2="646.2139" y2="871.1401">
				<stop  offset="0" style="stop-color:#34CEFE"/>
				<stop  offset="0.3317" style="stop-color:#34CEFE"/>
				<stop  offset="0.4257" style="stop-color:#2295C3"/>
				<stop  offset="1" style="stop-color:#021732"/>
			</linearGradient>
			<path class="st28" d="M641.8,295.5l8-3c0,0,0.1,0,0.1,0c0.7,0.1,1.3-0.1,1.8-0.5c0.4-0.3,0.3-0.8-0.2-1l-7.1-2.3
				c-0.1-0.1-0.3,0-0.4,0.1l-3.2,5.5C640.2,295.7,640.5,296,641.8,295.5z"/>
			<linearGradient id="SVGID_20_" gradientUnits="userSpaceOnUse" x1="704.8108" y1="238.058" x2="704.8108" y2="871.1401">
				<stop  offset="0" style="stop-color:#34CEFE"/>
				<stop  offset="0.3317" style="stop-color:#34CEFE"/>
				<stop  offset="0.4257" style="stop-color:#2295C3"/>
				<stop  offset="1" style="stop-color:#021732"/>
			</linearGradient>
			<path class="st29" d="M698.2,304.8l12.3-0.2c0.3,0,0.5-0.1,0.5-0.4c1.4-3.8,0.9-9,0.8-13c0-0.3-0.2-0.5-0.5-0.5l-13.1,0.2
				c-0.3,0-0.6,0.3-0.6,0.6l0.2,12.9C697.8,304.6,698,304.8,698.2,304.8z"/>
			<linearGradient id="SVGID_21_" gradientUnits="userSpaceOnUse" x1="658.3134" y1="238.058" x2="658.3134" y2="871.1401">
				<stop  offset="0" style="stop-color:#34CEFE"/>
				<stop  offset="0.3317" style="stop-color:#34CEFE"/>
				<stop  offset="0.4257" style="stop-color:#2295C3"/>
				<stop  offset="1" style="stop-color:#021732"/>
			</linearGradient>
			<path class="st30" d="M659.7,306.6c-0.1-0.1-0.3-0.1-0.4,0l-10.1,10.3c-0.1,0.1-0.1,0.3,0,0.4l2.7,2.7c3.8,3.7,7.8,5.8,8.9,4.6
				l6.4-6.5c1.1-1.2-1-5.1-4.8-8.8L659.7,306.6z"/>
			<linearGradient id="SVGID_22_" gradientUnits="userSpaceOnUse" x1="750.357" y1="238.058" x2="750.357" y2="871.1401">
				<stop  offset="0" style="stop-color:#34CEFE"/>
				<stop  offset="0.3317" style="stop-color:#34CEFE"/>
				<stop  offset="0.4257" style="stop-color:#2295C3"/>
				<stop  offset="1" style="stop-color:#021732"/>
			</linearGradient>
			<path class="st31" d="M749.8,325.6c0.2,0.2,0.5,0.2,0.7,0c2.3-2.6,5.1-5,9-7.5c0.3-0.2,0.4-0.6,0.2-0.9c-2.8-3.9-6.2-7.3-10-10.2
				c-0.5-0.4-1.2-0.3-1.5,0.2l-7.1,9.2c-0.3,0.4-0.3,0.8,0.1,1.2L749.8,325.6z"/>
			<linearGradient id="SVGID_23_" gradientUnits="userSpaceOnUse" x1="344.6852" y1="238.058" x2="344.6852" y2="871.1401">
				<stop  offset="0" style="stop-color:#34CEFE"/>
				<stop  offset="0.3317" style="stop-color:#34CEFE"/>
				<stop  offset="0.4257" style="stop-color:#2295C3"/>
				<stop  offset="1" style="stop-color:#021732"/>
			</linearGradient>
			<path class="st32" d="M331.4,334l26.7-0.3c0.3,0,0.4-0.2,0.4-0.4l0-8.1l-27.6,0.1l0,8.2C330.9,333.8,331.1,334,331.4,334z"/>
			<linearGradient id="SVGID_24_" gradientUnits="userSpaceOnUse" x1="400.3479" y1="238.058" x2="400.3479" y2="871.1401">
				<stop  offset="0" style="stop-color:#34CEFE"/>
				<stop  offset="0.3317" style="stop-color:#34CEFE"/>
				<stop  offset="0.4257" style="stop-color:#2295C3"/>
				<stop  offset="1" style="stop-color:#021732"/>
			</linearGradient>
			<polygon class="st33" points="407.9,329.8 393,329.8 392.8,358.5 407.9,358.1 			"/>
			<linearGradient id="SVGID_25_" gradientUnits="userSpaceOnUse" x1="449.6836" y1="238.058" x2="449.6836" y2="871.1401">
				<stop  offset="0" style="stop-color:#34CEFE"/>
				<stop  offset="0.3317" style="stop-color:#34CEFE"/>
				<stop  offset="0.4257" style="stop-color:#2295C3"/>
				<stop  offset="1" style="stop-color:#021732"/>
			</linearGradient>
			<path class="st34" d="M455.9,349l0.3-5.5c0-0.9-0.7-1.6-1.5-1.6h-9.8c-0.8,0-1.5,0.6-1.5,1.4l-0.2,4.7c0,0.8,0.6,1.5,1.4,1.6
				l9.7,0.8C455.1,350.5,455.9,349.9,455.9,349z"/>
			<linearGradient id="SVGID_26_" gradientUnits="userSpaceOnUse" x1="767.5573" y1="238.058" x2="767.5573" y2="871.1401">
				<stop  offset="0" style="stop-color:#34CEFE"/>
				<stop  offset="0.3317" style="stop-color:#34CEFE"/>
				<stop  offset="0.4257" style="stop-color:#2295C3"/>
				<stop  offset="1" style="stop-color:#021732"/>
			</linearGradient>
			<path class="st35" d="M761.4,369l11.7,2.3c0.5,0.1,0.9-0.3,1-0.8l0.3-16.6c0-0.4-0.4-0.8-0.8-0.8l-12,0.2c-0.4,0-0.8,0.4-0.8,0.8
				v14.1C760.8,368.6,761,368.9,761.4,369z"/>
			<linearGradient id="SVGID_27_" gradientUnits="userSpaceOnUse" x1="640.8442" y1="238.058" x2="640.8442" y2="871.1401">
				<stop  offset="0" style="stop-color:#34CEFE"/>
				<stop  offset="0.3317" style="stop-color:#34CEFE"/>
				<stop  offset="0.4257" style="stop-color:#2295C3"/>
				<stop  offset="1" style="stop-color:#021732"/>
			</linearGradient>
			<path class="st36" d="M634.4,367.5l0.6,2.9c0.1,0.3,0.4,0.6,0.8,0.5l11.8-1.9c0.3,0,0.5-0.3,0.5-0.5l-0.2-13.8
				c0-0.4-0.2-0.6-0.6-0.6l-12.8-1.2C633.5,357.5,633.5,362.4,634.4,367.5z"/>
			<linearGradient id="SVGID_28_" gradientUnits="userSpaceOnUse" x1="344.555" y1="238.058" x2="344.555" y2="871.1401">
				<stop  offset="0" style="stop-color:#34CEFE"/>
				<stop  offset="0.3317" style="stop-color:#34CEFE"/>
				<stop  offset="0.4257" style="stop-color:#2295C3"/>
				<stop  offset="1" style="stop-color:#021732"/>
			</linearGradient>
			<path class="st37" d="M331.6,386.4h25.4c0.7,0,1.3-0.6,1.3-1.3l0.1-28.5l0-15.5c0-0.2-0.2-0.4-0.4-0.4h-26.6
				c-0.4,0-0.7,0.3-0.7,0.7l-0.1,19.2l0,24.8C330.7,385.9,331.1,386.4,331.6,386.4z"/>
			<linearGradient id="SVGID_29_" gradientUnits="userSpaceOnUse" x1="449.1491" y1="238.058" x2="449.1491" y2="871.1401">
				<stop  offset="0" style="stop-color:#34CEFE"/>
				<stop  offset="0.3317" style="stop-color:#34CEFE"/>
				<stop  offset="0.4257" style="stop-color:#2295C3"/>
				<stop  offset="1" style="stop-color:#021732"/>
			</linearGradient>
			<path class="st38" d="M453.8,360.6l-9.3,0c-0.7,0-1.2,0.6-1.2,1.3l0,5.6c0,0.7,0.6,1.2,1.3,1.2l9.3,0c0.7,0,1.2-0.6,1.2-1.3
				l0-5.6C455,361.2,454.5,360.6,453.8,360.6z"/>
			<linearGradient id="SVGID_30_" gradientUnits="userSpaceOnUse" x1="400.3129" y1="238.058" x2="400.3129" y2="871.1401">
				<stop  offset="0" style="stop-color:#34CEFE"/>
				<stop  offset="0.3317" style="stop-color:#34CEFE"/>
				<stop  offset="0.4257" style="stop-color:#2295C3"/>
				<stop  offset="1" style="stop-color:#021732"/>
			</linearGradient>
			<path class="st39" d="M393.6,374.7h13.4c0.3,0,0.5-0.2,0.5-0.5l0.1-8.1l-14.8-0.1l0,8C392.9,374.5,393.1,374.7,393.6,374.7z"/>
			<linearGradient id="SVGID_31_" gradientUnits="userSpaceOnUse" x1="277.9856" y1="238.057" x2="277.9856" y2="871.1599">
				<stop  offset="0" style="stop-color:#34CEFE"/>
				<stop  offset="0.3317" style="stop-color:#34CEFE"/>
				<stop  offset="0.4257" style="stop-color:#2295C3"/>
				<stop  offset="1" style="stop-color:#021732"/>
			</linearGradient>
			<path class="st40" d="M290.7,373c0-0.7-0.3-0.8-0.8-0.4c-0.2,0.2-0.5,0.5-0.9,1c-5,5.8-8.1,9.6-12,15.9
				c-0.3,0.5-3.4,5.6-9.3,15.3c-1,1.6-1.8,3.2-2.5,4.6c-0.1,0.3,0.1,0.7,0.4,0.7l24.4,0.4c0.4,0,0.8-0.4,0.8-0.8L290.7,373z
				 M277.6,401.5c-2.7-0.2-4.7-1.5-4.6-2.9c0.1-1.4,2.4-2.3,5.1-2.1c2.7,0.2,4.7,1.5,4.6,2.9C282.5,400.8,280.3,401.7,277.6,401.5z"
				/>
			<linearGradient id="SVGID_32_" gradientUnits="userSpaceOnUse" x1="796.0352" y1="238.0522" x2="796.0352" y2="871.1733">
				<stop  offset="0" style="stop-color:#34CEFE"/>
				<stop  offset="0.3317" style="stop-color:#34CEFE"/>
				<stop  offset="0.4257" style="stop-color:#2295C3"/>
				<stop  offset="1" style="stop-color:#021732"/>
			</linearGradient>
			<path class="st41" d="M812.8,409.6c-5.9-11.5-12.7-22.4-20.2-32.7c-1.3-1.8-2-1.6-2.2,0.6c-0.2,2.3-0.6,4.9-1.4,7.6
				c-2.1,7.4-3.1,11.2-3.2,11.4c-1.5,4.6-3.7,8.9-6.5,12.8c-0.3,0.4,0,1,0.5,1h32.6C812.8,410.3,813,409.9,812.8,409.6z
				 M797.7,401.6l-7.5-0.1c-0.6,0-0.8-0.3-0.7-0.9c0.2-1.2,0.8-2.4,1.6-3.7c0.2-0.3,0.5-0.5,0.8-0.6c0.6-0.2,1.5-0.2,2.6-0.3
				c2.5-0.2,5.5,0.1,5.9,2.7C800.6,400.3,799.3,401.6,797.7,401.6z"/>
			<linearGradient id="SVGID_33_" gradientUnits="userSpaceOnUse" x1="447.7979" y1="238.058" x2="447.7979" y2="871.1401">
				<stop  offset="0" style="stop-color:#34CEFE"/>
				<stop  offset="0.3317" style="stop-color:#34CEFE"/>
				<stop  offset="0.4257" style="stop-color:#2295C3"/>
				<stop  offset="1" style="stop-color:#021732"/>
			</linearGradient>
			<path class="st42" d="M443,381.7c0,1,0.5,1.5,1.5,1.5c3,0,5.7-1.3,8-3.7c0.2-0.2,0.1-0.5-0.2-0.5l-7.6-0.9
				c-1.1-0.1-1.6,0.4-1.6,1.4L443,381.7z"/>
			<linearGradient id="SVGID_34_" gradientUnits="userSpaceOnUse" x1="400.4679" y1="238.058" x2="400.4679" y2="871.1401">
				<stop  offset="0" style="stop-color:#34CEFE"/>
				<stop  offset="0.3317" style="stop-color:#34CEFE"/>
				<stop  offset="0.4257" style="stop-color:#2295C3"/>
				<stop  offset="1" style="stop-color:#021732"/>
			</linearGradient>
			<path class="st43" d="M392.8,407.1c0,0.6,0.5,1.2,1.2,1.2l13.1,0c0.6,0,1.2-0.5,1.2-1.2l0-25.1c0-0.6-0.5-1.2-1.2-1.2l-13.1,0
				c-0.6,0-1.2,0.5-1.2,1.2L392.8,407.1z"/>
			<linearGradient id="SVGID_35_" gradientUnits="userSpaceOnUse" x1="344.695" y1="238.058" x2="344.695" y2="871.1401">
				<stop  offset="0" style="stop-color:#34CEFE"/>
				<stop  offset="0.3317" style="stop-color:#34CEFE"/>
				<stop  offset="0.4257" style="stop-color:#2295C3"/>
				<stop  offset="1" style="stop-color:#021732"/>
			</linearGradient>
			<path class="st44" d="M358.7,409.9l0-14.9l-27.2-0.1c-0.4,0-0.7,0.3-0.7,0.7l0.1,6.1l0.1,8.8c0,0.4,0.2,0.6,0.6,0.6h26
				C358.1,411.1,358.7,410.6,358.7,409.9z"/>
			<linearGradient id="SVGID_36_" gradientUnits="userSpaceOnUse" x1="749.5021" y1="238.058" x2="749.5021" y2="871.1401">
				<stop  offset="0" style="stop-color:#34CEFE"/>
				<stop  offset="0.3317" style="stop-color:#34CEFE"/>
				<stop  offset="0.4257" style="stop-color:#2295C3"/>
				<stop  offset="1" style="stop-color:#021732"/>
			</linearGradient>
			<path class="st45" d="M747.3,415.8c0.2,0.3,0.7,0.3,0.9,0.1l9.2-9.2c1.3-1.3,1-3.4-0.6-4.2l-7.5-4.3c-0.2-0.1-0.4-0.1-0.6,0.1
				L741,406c-0.3,0.3-0.3,0.7,0,1L747.3,415.8z"/>
			<linearGradient id="SVGID_37_" gradientUnits="userSpaceOnUse" x1="659.8735" y1="238.058" x2="659.8735" y2="871.1401">
				<stop  offset="0" style="stop-color:#34CEFE"/>
				<stop  offset="0.3317" style="stop-color:#34CEFE"/>
				<stop  offset="0.4257" style="stop-color:#2295C3"/>
				<stop  offset="1" style="stop-color:#021732"/>
			</linearGradient>
			<path class="st46" d="M668.7,406.4c0-0.1,0-0.1,0-0.2l-7-7.2c-0.7-0.8-1.9-0.9-2.8-0.4l-7.8,4.5c-0.1,0-0.1,0.1,0,0.2l11.3,10.5
				c0.2,0.2,0.5,0.1,0.6-0.1L668.7,406.4z"/>
			<linearGradient id="SVGID_38_" gradientUnits="userSpaceOnUse" x1="704.2525" y1="238.058" x2="704.2525" y2="871.1401">
				<stop  offset="0" style="stop-color:#34CEFE"/>
				<stop  offset="0.3317" style="stop-color:#34CEFE"/>
				<stop  offset="0.4257" style="stop-color:#2295C3"/>
				<stop  offset="1" style="stop-color:#021732"/>
			</linearGradient>
			<path class="st47" d="M697.5,432.2l13.5,0.2c0.2,0,0.4-0.2,0.4-0.4l-0.2-12.5c0-0.2-0.2-0.3-0.3-0.4l-12.7-0.2
				c-0.2,0-0.4,0.1-0.4,0.3l-0.7,12.4C697.1,432,697.3,432.2,697.5,432.2z"/>
			<linearGradient id="SVGID_39_" gradientUnits="userSpaceOnUse" x1="809.3067" y1="238.058" x2="809.3067" y2="871.1401">
				<stop  offset="0" style="stop-color:#34CEFE"/>
				<stop  offset="0.3317" style="stop-color:#34CEFE"/>
				<stop  offset="0.4257" style="stop-color:#2295C3"/>
				<stop  offset="1" style="stop-color:#021732"/>
			</linearGradient>
			<path class="st48" d="M798.5,422.8c-0.4,0.2-0.7,0.5-0.7,0.8c-0.1,0.3,0,0.6,0.3,0.9c0.2,0.2,0.4,0.3,0.8,0.4
				c3.2,0.8,5.9,2.4,8.2,4.8c0.2,0.2,0.5,0.4,0.9,0.4c3,0.2,5.8-0.6,8.2-1c1.5-0.3,2.7-0.5,3.6-0.7c1.1-0.3,1.4-0.9,1.1-2l-1.7-5
				c-0.4-1.1-1.5-1.8-2.6-1.7c-5.6,0.7-11.2,1.5-16.7,2.5C799.5,422.4,799.1,422.5,798.5,422.8z"/>
			<linearGradient id="SVGID_40_" gradientUnits="userSpaceOnUse" x1="268.706" y1="238.058" x2="268.706" y2="871.1401">
				<stop  offset="0" style="stop-color:#34CEFE"/>
				<stop  offset="0.3317" style="stop-color:#34CEFE"/>
				<stop  offset="0.4257" style="stop-color:#2295C3"/>
				<stop  offset="1" style="stop-color:#021732"/>
			</linearGradient>
			<path class="st49" d="M257.5,428.4l11.3,1.7c0.6,0.1,1.1,0,1.6-0.3l10.5-6.1c0.2-0.1,0.2-0.3,0-0.4c-3-1.2-6.4-2.6-9.9-2.5
				c-3.8,0.1-6.9-0.1-9.4-0.6c-1.2-0.3-2,0.2-2.5,1.3l-2.5,5.3C256.1,427.7,256.4,428.2,257.5,428.4z"/>
			<linearGradient id="SVGID_41_" gradientUnits="userSpaceOnUse" x1="256.0122" y1="238.058" x2="256.0122" y2="871.1401">
				<stop  offset="0" style="stop-color:#34CEFE"/>
				<stop  offset="0.3317" style="stop-color:#34CEFE"/>
				<stop  offset="0.4257" style="stop-color:#2295C3"/>
				<stop  offset="1" style="stop-color:#021732"/>
			</linearGradient>
			<path class="st50" d="M249.5,446.8l12,2.1c0.4,0.1,0.8-0.2,0.9-0.6l0.7-3.8c0.4-2-0.2-3.7-1.2-3.9l-9.9-1.7
				c-1-0.2-2.1,1.3-2.5,3.3l-0.7,3.8C248.8,446.4,249.1,446.8,249.5,446.8z"/>
			<linearGradient id="SVGID_42_" gradientUnits="userSpaceOnUse" x1="821.3388" y1="238.058" x2="821.3388" y2="871.1401">
				<stop  offset="0" style="stop-color:#34CEFE"/>
				<stop  offset="0.3317" style="stop-color:#34CEFE"/>
				<stop  offset="0.4257" style="stop-color:#2295C3"/>
				<stop  offset="1" style="stop-color:#021732"/>
			</linearGradient>
			<path class="st51" d="M814.6,441.2l0.6,6.4c0.1,0.5,0.5,0.8,0.9,0.8l7-0.7c2.8-0.3,5-1.1,4.9-1.9l-0.5-5.3
				c-0.1-0.8-2.4-1.2-5.2-0.9l-7,0.7C814.9,440.4,814.6,440.8,814.6,441.2z"/>
			<linearGradient id="SVGID_43_" gradientUnits="userSpaceOnUse" x1="825.2003" y1="238.058" x2="825.2003" y2="871.1401">
				<stop  offset="0" style="stop-color:#34CEFE"/>
				<stop  offset="0.3317" style="stop-color:#34CEFE"/>
				<stop  offset="0.4257" style="stop-color:#2295C3"/>
				<stop  offset="1" style="stop-color:#021732"/>
			</linearGradient>
			<path class="st52" d="M816.6,464.3c-0.1,0.2-0.1,0.4-0.2,0.5c-0.1,0.1-0.2,0.2-0.2,0.3c-0.3,0.5,0.1,1.1,0.6,1.1l16.6-1.1
				c0.8,0,1.1-0.5,0.9-1.3l-1.8-6.5c-0.2-0.8-0.8-1.1-1.6-1c-3.6,0.5-6.7,1-9.3,1.4C817.5,458.4,817.5,461.1,816.6,464.3z"/>
			<linearGradient id="SVGID_44_" gradientUnits="userSpaceOnUse" x1="252.102" y1="238.058" x2="252.102" y2="871.1401">
				<stop  offset="0" style="stop-color:#34CEFE"/>
				<stop  offset="0.3317" style="stop-color:#34CEFE"/>
				<stop  offset="0.4257" style="stop-color:#2295C3"/>
				<stop  offset="1" style="stop-color:#021732"/>
			</linearGradient>
			<path class="st53" d="M243.8,465.2l17.3,0.9c0.3,0,0.5-0.1,0.4-0.4l-0.8-5.2c-0.1-0.9-0.8-1.6-1.7-1.7l-12.1-2.4
				c-1.3-0.3-2.1,0.3-2.4,1.5l-1.6,6C242.6,464.7,242.9,465.1,243.8,465.2z"/>
			<linearGradient id="SVGID_45_" gradientUnits="userSpaceOnUse" x1="806.581" y1="238.058" x2="806.581" y2="871.1401">
				<stop  offset="0" style="stop-color:#34CEFE"/>
				<stop  offset="0.3317" style="stop-color:#34CEFE"/>
				<stop  offset="0.4257" style="stop-color:#2295C3"/>
				<stop  offset="1" style="stop-color:#021732"/>
			</linearGradient>
			<path class="st54" d="M773.6,483.4l1.7,6.1c0,0.2,0.2,0.3,0.4,0.3l63.5-4.8c0.2,0,0.4-0.3,0.3-0.5l-2.4-8.5
				c-0.1-0.2-0.2-0.3-0.4-0.3L774,483C773.7,483,773.6,483.2,773.6,483.4z"/>
			<linearGradient id="SVGID_46_" gradientUnits="userSpaceOnUse" x1="270.9138" y1="238.058" x2="270.9138" y2="871.1401">
				<stop  offset="0" style="stop-color:#34CEFE"/>
				<stop  offset="0.3317" style="stop-color:#34CEFE"/>
				<stop  offset="0.4257" style="stop-color:#2295C3"/>
				<stop  offset="1" style="stop-color:#021732"/>
			</linearGradient>
			<path class="st55" d="M239.1,484.8l61.6,5.2c0.6,0,0.9-0.2,1-0.7l1.7-6.4c0.1-0.4-0.2-0.7-0.5-0.7c-4.7-0.1-9.5-0.1-14.4-0.8
				c-8.8-1.1-18.5-2.4-29.2-3.7c-6.7-0.8-12.1-0.8-18.2-1.8c-0.7-0.1-1.3,0.3-1.4,1l-1.4,6.9C238.3,484.2,238.6,484.7,239.1,484.8z"
				/>
			<linearGradient id="SVGID_47_" gradientUnits="userSpaceOnUse" x1="809.8506" y1="238.058" x2="809.8506" y2="871.1401">
				<stop  offset="0" style="stop-color:#34CEFE"/>
				<stop  offset="0.3317" style="stop-color:#34CEFE"/>
				<stop  offset="0.4257" style="stop-color:#2295C3"/>
				<stop  offset="1" style="stop-color:#021732"/>
			</linearGradient>
			<path class="st56" d="M840.7,493.9l-62.3,4c-0.5,0-0.9,0.5-0.8,1l0.5,4.2c0.1,0.4,0.4,0.8,0.9,0.8l62.3-0.8
				c0.5,0,0.9-0.4,0.9-0.9l-0.5-7.4C841.6,494.2,841.2,493.8,840.7,493.9z"/>
			<linearGradient id="SVGID_48_" gradientUnits="userSpaceOnUse" x1="267.6305" y1="238.058" x2="267.6305" y2="871.1401">
				<stop  offset="0" style="stop-color:#34CEFE"/>
				<stop  offset="0.3317" style="stop-color:#34CEFE"/>
				<stop  offset="0.4257" style="stop-color:#2295C3"/>
				<stop  offset="1" style="stop-color:#021732"/>
			</linearGradient>
			<path class="st57" d="M297.9,504.3c0.2,0,0.3-0.1,0.4-0.3l1.1-5.6c0-0.2,0-0.3-0.2-0.3c-13.8-1-27.7-2.2-41.5-3.4
				c-2.6-0.2-9.2-0.4-19.9-0.5c-1.2,0-1.7,0.6-1.8,1.7l-0.1,5.5c0,1.1,0.5,1.6,1.6,1.6C254.6,502.9,274.8,503.3,297.9,504.3z"/>
			<linearGradient id="SVGID_49_" gradientUnits="userSpaceOnUse" x1="272.9036" y1="238.058" x2="272.9036" y2="871.1401">
				<stop  offset="0" style="stop-color:#34CEFE"/>
				<stop  offset="0.3317" style="stop-color:#34CEFE"/>
				<stop  offset="0.4257" style="stop-color:#2295C3"/>
				<stop  offset="1" style="stop-color:#021732"/>
			</linearGradient>
			<path class="st58" d="M296.3,514.8h-46.9c-0.5,0-0.9,0.5-0.8,1l1.7,6c0.1,0.4,0.4,0.6,0.8,0.6l44.8-0.6c0.4,0,0.8-0.3,0.8-0.8
				l0.4-5.4C297.2,515.2,296.8,514.8,296.3,514.8z"/>
			<linearGradient id="SVGID_50_" gradientUnits="userSpaceOnUse" x1="804.852" y1="238.058" x2="804.852" y2="871.1401">
				<stop  offset="0" style="stop-color:#34CEFE"/>
				<stop  offset="0.3317" style="stop-color:#34CEFE"/>
				<stop  offset="0.4257" style="stop-color:#2295C3"/>
				<stop  offset="1" style="stop-color:#021732"/>
			</linearGradient>
			<path class="st59" d="M781.5,522.1h45.4c0.5,0,1-0.3,1.1-0.8l1.7-5.3c0.2-0.8-0.3-1.5-1.1-1.5l-47.4,0.6c-0.7,0-1.2,0.6-1.1,1.3
				l0.4,4.6C780.4,521.7,780.9,522.1,781.5,522.1z"/>
			<linearGradient id="SVGID_51_" gradientUnits="userSpaceOnUse" x1="204.732" y1="237.9585" x2="204.732" y2="871.2465">
				<stop  offset="0" style="stop-color:#34CEFE"/>
				<stop  offset="0.3317" style="stop-color:#34CEFE"/>
				<stop  offset="0.4257" style="stop-color:#2295C3"/>
				<stop  offset="1" style="stop-color:#021732"/>
			</linearGradient>
			<path class="st60" d="M207.2,531.3c-5.7-1.3-11.4,2.5-12.8,8.5c-1.4,6,2.1,12,7.8,13.3c5.7,1.3,11.4-2.5,12.8-8.5
				C216.4,538.5,212.9,532.6,207.2,531.3z M202.7,536.7l-0.1,0.1c-0.9,0.6-2.1,0.3-2.7-0.7l-0.1-0.1c-0.1-0.1,0-0.3,0.1-0.4l2.9-1.8
				c0.1-0.1,0.3,0,0.4,0.1l0.1,0.1C203.9,534.9,203.6,536.1,202.7,536.7z"/>
			<linearGradient id="SVGID_52_" gradientUnits="userSpaceOnUse" x1="875.1287" y1="238.058" x2="875.1287" y2="871.1401">
				<stop  offset="0" style="stop-color:#34CEFE"/>
				<stop  offset="0.3317" style="stop-color:#34CEFE"/>
				<stop  offset="0.4257" style="stop-color:#2295C3"/>
				<stop  offset="1" style="stop-color:#021732"/>
			</linearGradient>
			<path class="st61" d="M885.5,539.2c-0.9-3.5-3.4-6.3-6.7-7.4c-2.5-0.9-5.3-0.8-7.8,0.3c1.8-0.1,3,0.1,3.8,0.4
				c2.8,1.3,2.7,2.2-0.2,3c-1.5,0.4-3.4,1.1-5.9,2.1c-0.6,0.2-1.2,0.3-1.8,0.2c-0.7-0.1-1.1-0.5-1-1.1c-1.8,3.1-2.1,6.9-0.7,10.2
				c1.4,3.3,4.3,5.6,7.8,6.3c3.6,0.6,7.4-0.7,9.9-3.5C885.5,546.7,886.4,542.8,885.5,539.2z"/>
			<linearGradient id="SVGID_53_" gradientUnits="userSpaceOnUse" x1="803.7106" y1="238.058" x2="803.7106" y2="871.1401">
				<stop  offset="0" style="stop-color:#34CEFE"/>
				<stop  offset="0.3317" style="stop-color:#34CEFE"/>
				<stop  offset="0.4257" style="stop-color:#2295C3"/>
				<stop  offset="1" style="stop-color:#021732"/>
			</linearGradient>
			<path class="st62" d="M779.5,565.3l0,2.2c0,0.5,0.4,0.9,0.9,0.9l46.6,0.2c0.5,0,0.9-0.4,0.9-0.9l0-2.2c0-0.5-0.4-0.9-0.9-0.9
				l-46.6-0.2C779.9,564.4,779.5,564.8,779.5,565.3z"/>
			<linearGradient id="SVGID_54_" gradientUnits="userSpaceOnUse" x1="277.3797" y1="238.058" x2="277.3797" y2="871.1401">
				<stop  offset="0" style="stop-color:#34CEFE"/>
				<stop  offset="0.3317" style="stop-color:#34CEFE"/>
				<stop  offset="0.4257" style="stop-color:#2295C3"/>
				<stop  offset="1" style="stop-color:#021732"/>
			</linearGradient>
			<path class="st63" d="M258.2,564.9c-0.3,0-0.6,0.3-0.6,0.6v2.3c0,0.3,0.3,0.6,0.6,0.6h38.3c0.3,0,0.6-0.3,0.6-0.6v-2.3
				c0-0.3-0.3-0.6-0.6-0.6H258.2z"/>
			<linearGradient id="SVGID_55_" gradientUnits="userSpaceOnUse" x1="273.9853" y1="238.058" x2="273.9853" y2="871.1401">
				<stop  offset="0" style="stop-color:#34CEFE"/>
				<stop  offset="0.3317" style="stop-color:#34CEFE"/>
				<stop  offset="0.4257" style="stop-color:#2295C3"/>
				<stop  offset="1" style="stop-color:#021732"/>
			</linearGradient>
			<path class="st64" d="M251.2,583l46.6-0.6c1,0,1.5-0.5,1.4-1.6l-0.4-3.6c-0.1-1.2-0.8-1.8-2-1.8l-42.1,0.6c-2.1,0-4,1.2-4.9,3.1
				l-0.4,0.9C248.2,582,248.9,583.1,251.2,583z"/>
			<linearGradient id="SVGID_56_" gradientUnits="userSpaceOnUse" x1="805.4333" y1="238.058" x2="805.4333" y2="871.1401">
				<stop  offset="0" style="stop-color:#34CEFE"/>
				<stop  offset="0.3317" style="stop-color:#34CEFE"/>
				<stop  offset="0.4257" style="stop-color:#2295C3"/>
				<stop  offset="1" style="stop-color:#021732"/>
			</linearGradient>
			<path class="st65" d="M777.9,577.9l-0.3,2.3c-0.1,1,0.7,1.9,1.7,1.9l52.2,0.9c1.1,0,2-1.1,1.7-2.2l-1.1-3.9
				c-0.2-0.8-0.9-1.3-1.7-1.3l-50.9,0.7C778.7,576.4,778,577,777.9,577.9z"/>
			<linearGradient id="SVGID_57_" gradientUnits="userSpaceOnUse" x1="269.0553" y1="238.058" x2="269.0553" y2="871.1401">
				<stop  offset="0" style="stop-color:#34CEFE"/>
				<stop  offset="0.3317" style="stop-color:#34CEFE"/>
				<stop  offset="0.4257" style="stop-color:#2295C3"/>
				<stop  offset="1" style="stop-color:#021732"/>
			</linearGradient>
			<path class="st66" d="M280.2,596.8c8.3-0.7,15.2-1,20.6-0.8c0.6,0,1-0.6,0.8-1.1l-1.2-2.9c-0.3-0.6-0.9-1.1-1.5-1.1
				c-5.6-0.4-12.3,0.1-16.9,0c-13.5-0.1-29.2,0.1-44.1,1c-1.1,0.1-1.7,0.7-1.6,1.8l0.3,4.3c0.1,1,0.9,1.7,1.9,1.7
				C262.8,598.1,276.6,597.1,280.2,596.8z"/>
			<linearGradient id="SVGID_58_" gradientUnits="userSpaceOnUse" x1="808.5012" y1="238.058" x2="808.5012" y2="871.1401">
				<stop  offset="0" style="stop-color:#34CEFE"/>
				<stop  offset="0.3317" style="stop-color:#34CEFE"/>
				<stop  offset="0.4257" style="stop-color:#2295C3"/>
				<stop  offset="1" style="stop-color:#021732"/>
			</linearGradient>
			<path class="st67" d="M840.5,591.6l-63.4-1.1c-0.7,0-1,0.3-1.2,0.9l-0.6,3.1c-0.1,0.6,0.3,1.1,0.9,1.1c8.2,0.4,14.3,0.2,21.2,0.9
				c14.4,1.5,28.3,2.5,41.8,3.2c0.8,0,1.2-0.3,1.4-1.1l1.1-5.7C841.8,592.1,841.5,591.7,840.5,591.6z"/>
			<linearGradient id="SVGID_59_" gradientUnits="userSpaceOnUse" x1="271.2685" y1="238.058" x2="271.2685" y2="871.1401">
				<stop  offset="0" style="stop-color:#34CEFE"/>
				<stop  offset="0.3317" style="stop-color:#34CEFE"/>
				<stop  offset="0.4257" style="stop-color:#2295C3"/>
				<stop  offset="1" style="stop-color:#021732"/>
			</linearGradient>
			<path class="st68" d="M298.8,608.7c1.8-0.2,3.4-0.2,4.7-0.1c0.7,0.1,1-0.3,0.8-1l-0.6-2.4c-0.2-0.7-0.8-1.2-1.6-1.1l-62.9,4.1
				c-0.9,0.1-1.2,0.5-1,1.3l1.5,6.1c0.2,0.7,0.7,1,1.4,0.9c10.1-1.8,18.5-2.6,30.6-4.4C281.5,610.6,290.5,609.5,298.8,608.7z"/>
			<linearGradient id="SVGID_60_" gradientUnits="userSpaceOnUse" x1="805.7208" y1="238.058" x2="805.7208" y2="871.1401">
				<stop  offset="0" style="stop-color:#34CEFE"/>
				<stop  offset="0.3317" style="stop-color:#34CEFE"/>
				<stop  offset="0.4257" style="stop-color:#2295C3"/>
				<stop  offset="1" style="stop-color:#021732"/>
			</linearGradient>
			<path class="st69" d="M838.2,608.5l-63.7-4.7c-0.7-0.1-1.4,0.4-1.6,1.1l-0.6,2.4c-0.2,0.7,0.1,1.1,0.8,1c1.3-0.1,2.9,0,4.7,0.2
				c8.4,0.9,17.4,2.1,27.3,3.7c12.2,2,20.8,2.9,31,4.8c0.8,0.1,1.2-0.2,1.4-0.9l1.6-6.2C839.4,609,839,608.6,838.2,608.5z"/>
			<linearGradient id="SVGID_61_" gradientUnits="userSpaceOnUse" x1="252.3089" y1="238.058" x2="252.3089" y2="871.1401">
				<stop  offset="0" style="stop-color:#34CEFE"/>
				<stop  offset="0.3317" style="stop-color:#34CEFE"/>
				<stop  offset="0.4257" style="stop-color:#2295C3"/>
				<stop  offset="1" style="stop-color:#021732"/>
			</linearGradient>
			<path class="st70" d="M261.1,635.3l0.5-9.8c0-0.5-0.4-0.8-0.8-0.7l-17,2.7c-0.5,0.1-0.9,0.6-0.7,1.2l2.6,9.4
				c0.1,0.5,0.6,0.8,1,0.7l11.8-0.8C259.9,637.9,261,636.7,261.1,635.3z"/>
			<linearGradient id="SVGID_62_" gradientUnits="userSpaceOnUse" x1="825.0145" y1="238.058" x2="825.0145" y2="871.1401">
				<stop  offset="0" style="stop-color:#34CEFE"/>
				<stop  offset="0.3317" style="stop-color:#34CEFE"/>
				<stop  offset="0.4257" style="stop-color:#2295C3"/>
				<stop  offset="1" style="stop-color:#021732"/>
			</linearGradient>
			<path class="st71" d="M833.6,628l-16.9-3.3c-0.8-0.2-1.5,0.6-1.2,1.4c1.2,3.3,1.8,6.5,1.7,9.7c0,0.4,0.2,0.8,0.6,0.9
				c3.7,1.4,9.4,2.7,13.4,2.1c0.5-0.1,0.8-0.2,0.8-0.5l2.5-8.9C834.7,628.8,834.3,628.2,833.6,628z"/>
			<linearGradient id="SVGID_63_" gradientUnits="userSpaceOnUse" x1="257.6989" y1="238.058" x2="257.6989" y2="871.1401">
				<stop  offset="0" style="stop-color:#34CEFE"/>
				<stop  offset="0.3317" style="stop-color:#34CEFE"/>
				<stop  offset="0.4257" style="stop-color:#2295C3"/>
				<stop  offset="1" style="stop-color:#021732"/>
			</linearGradient>
			<path class="st72" d="M264,649.9l-0.2-1c-0.4-1.8-2.4-2.8-4.5-2.3l-7.6,1.8c-0.3,0.1-0.5,0.4-0.5,0.7l1.4,6.2
				c0.1,0.3,0.4,0.5,0.7,0.5l7.6-1.8C263.1,653.4,264.4,651.6,264,649.9z"/>
			<linearGradient id="SVGID_64_" gradientUnits="userSpaceOnUse" x1="820.0058" y1="238.058" x2="820.0058" y2="871.1401">
				<stop  offset="0" style="stop-color:#34CEFE"/>
				<stop  offset="0.3317" style="stop-color:#34CEFE"/>
				<stop  offset="0.4257" style="stop-color:#2295C3"/>
				<stop  offset="1" style="stop-color:#021732"/>
			</linearGradient>
			<path class="st73" d="M826.3,649.1l-8.7-2.3c-1.3-0.3-2.3,0.1-2.9,1.2l-1.3,2.3c-0.6,1.1-0.3,1.8,0.9,2.2l9.9,3.1
				c0.7,0.2,1.1,0,1.3-0.7l1.5-4.9C827.1,649.6,826.9,649.3,826.3,649.1z"/>
			<linearGradient id="SVGID_65_" gradientUnits="userSpaceOnUse" x1="269.7749" y1="238.058" x2="269.7749" y2="871.1401">
				<stop  offset="0" style="stop-color:#34CEFE"/>
				<stop  offset="0.3317" style="stop-color:#34CEFE"/>
				<stop  offset="0.4257" style="stop-color:#2295C3"/>
				<stop  offset="1" style="stop-color:#021732"/>
			</linearGradient>
			<path class="st74" d="M281.3,669c0.3-0.2,0.3-0.5,0-0.6l-10.2-5.9c-0.2-0.1-0.4-0.1-0.5-0.1l-12,3c-0.5,0.1-0.7,0.6-0.5,1.1
				l2.4,5.7c0.2,0.4,0.5,0.6,0.9,0.5c5.9-0.5,11.2-1.2,16.1-2.1C279,670.3,280.3,669.8,281.3,669z"/>
			<linearGradient id="SVGID_66_" gradientUnits="userSpaceOnUse" x1="808.7305" y1="238.058" x2="808.7305" y2="871.1401">
				<stop  offset="0" style="stop-color:#34CEFE"/>
				<stop  offset="0.3317" style="stop-color:#34CEFE"/>
				<stop  offset="0.4257" style="stop-color:#2295C3"/>
				<stop  offset="1" style="stop-color:#021732"/>
			</linearGradient>
			<path class="st75" d="M818.9,664.7l-11-2.2c-0.3,0-0.5,0-0.8,0.1l-8.9,5.2c-0.9,0.5-0.7,1.9,0.3,2.1l17.8,3.5
				c0.6,0.1,1.1-0.2,1.3-0.8l2.1-6.5C819.9,665.5,819.6,664.9,818.9,664.7z"/>
			<linearGradient id="SVGID_67_" gradientUnits="userSpaceOnUse" x1="797.4163" y1="238.058" x2="797.4163" y2="871.1401">
				<stop  offset="0" style="stop-color:#34CEFE"/>
				<stop  offset="0.3317" style="stop-color:#34CEFE"/>
				<stop  offset="0.4257" style="stop-color:#2295C3"/>
				<stop  offset="1" style="stop-color:#021732"/>
			</linearGradient>
			<path class="st76" d="M810.4,681.9l-25.9-0.1c-0.7,0-1.2,0.6-1,1.3l1.6,5.7c0.2,0.8,0.7,1.1,1.5,1c3.3-0.5,7.3-0.4,12.3,0.1
				c1,0.1,1.4,0.6,1.1,1.6l-0.4,1.4c-0.3,1-0.9,1.5-2,1.5h-10.2c-0.6,0-1,0.5-0.9,1l1.3,7.8c0.1,0.5,0.3,0.7,0.8,0.8l3.1,0.6
				c0.9,0.2,1.3,1.3,0.6,2c-0.9,0.8-1.6,1.3-2.3,1.5c-0.9,0.3-1.4,0.9-1.3,1.9l0.6,9.4c0,0.2,0.2,0.4,0.4,0.4c0.4,0.1,0.7,0,0.9-0.4
				c4.4-7.1,6.5-10.7,11.9-19.2c3.4-5.3,6.2-10.8,8.5-16.6c0.1-0.3,0.2-0.6,0.2-0.7C811.3,682.4,810.9,681.9,810.4,681.9z"/>
			<linearGradient id="SVGID_68_" gradientUnits="userSpaceOnUse" x1="706.879" y1="238.0528" x2="706.879" y2="871.1387">
				<stop  offset="0" style="stop-color:#34CEFE"/>
				<stop  offset="0.3317" style="stop-color:#34CEFE"/>
				<stop  offset="0.4257" style="stop-color:#2295C3"/>
				<stop  offset="1" style="stop-color:#021732"/>
			</linearGradient>
			<path class="st77" d="M771,725.8c-0.2-3.1-0.3-6-0.2-8.5c0-1.3-0.6-2.3-0.7-3.4c-0.6-8.9-3.6-16.9-9-24.1
				c-8.9-13.2-24.2-22.6-39.7-25.6c-28.7-5.5-58.5,5.9-72.1,32.6c-3,6.1-4.9,12.5-5.5,19.2c-1,6.1-1.2,11.8-0.7,16.9
				c1.1,11.3,5.1,21.4,12.1,30.3c10.1,12.8,27.6,21.4,43.3,23.5c11.3,1.5,22.1,0.1,32.5-4.1c6.8-2.7,12.6-6,17.5-9.6
				C762.8,762.1,772,744.2,771,725.8z M764.6,738.1c-3.2,14.2-10.6,25-22.1,32.5c-5.7,3.7-11.7,6.6-18,8.5
				c-21,6.5-45.7,0.6-61.5-15.3c-10.6-10.7-15.9-25.8-15.4-40.6c0-5,0.3-8.5,0.9-10.5c0.3-1.1,0.6-2,0.8-2.8
				c0.9-4.2,2.8-8.2,4.6-12.1c7.1-11.9,17.3-20.1,30.5-24.7c20.1-7.1,41.9-4,59.5,7c5.4,3.4,9.9,8,13.4,13.8
				c3.8,6.4,6.6,13.2,8.4,20.4c0.3,1.3,0.5,2.5,0.6,3.7C766.7,724.9,766.1,731.6,764.6,738.1z"/>
			<linearGradient id="SVGID_69_" gradientUnits="userSpaceOnUse" x1="594.9629" y1="238.058" x2="594.9629" y2="871.1401">
				<stop  offset="0" style="stop-color:#34CEFE"/>
				<stop  offset="0.3317" style="stop-color:#34CEFE"/>
				<stop  offset="0.4257" style="stop-color:#2295C3"/>
				<stop  offset="1" style="stop-color:#021732"/>
			</linearGradient>
			<path class="st78" d="M620.1,728.5c-16.3,7.6-33.2,13-50.8,16.1c-1.6,0.3-2.6,0.9-3,1.9c-0.9,2.1-1.5,3.7-1.8,4.8
				c-0.2,0.6,0.3,1.1,0.9,1.1c1.7-0.1,3.3-0.2,4.6-0.5c14.5-2.6,28.5-6.3,41.6-12.3c7.1-3.3,10.8-5,10.9-5c0.5-0.3,1.4-0.8,2.6-1.6
				c0.3-0.2,0.3-0.5,0.1-0.7l-3.4-3.4C621.4,728.3,620.7,728.2,620.1,728.5z"/>
			<linearGradient id="SVGID_70_" gradientUnits="userSpaceOnUse" x1="487.6324" y1="238.058" x2="487.6324" y2="871.1401">
				<stop  offset="0" style="stop-color:#34CEFE"/>
				<stop  offset="0.3317" style="stop-color:#34CEFE"/>
				<stop  offset="0.4257" style="stop-color:#2295C3"/>
				<stop  offset="1" style="stop-color:#021732"/>
			</linearGradient>
			<path class="st79" d="M463.1,732l-1.5,5.8c0,0.1,0,0.3,0.2,0.3c8.8,3.7,13.9,5.8,15.3,6.3c7.2,2.5,18.8,5.3,34.9,8.2
				c1.8,0.3,2.3-0.3,1.4-1.9l-2.1-3.7c-1-1.7-2.4-2.6-4.3-2.9c-14.8-2.1-28.8-6.8-43.4-12.3C463.2,731.7,463.1,731.8,463.1,732z"/>
			<linearGradient id="SVGID_71_" gradientUnits="userSpaceOnUse" x1="621.1136" y1="238.0437" x2="621.1136" y2="871.1449">
				<stop  offset="0" style="stop-color:#34CEFE"/>
				<stop  offset="0.3317" style="stop-color:#34CEFE"/>
				<stop  offset="0.4257" style="stop-color:#2295C3"/>
				<stop  offset="1" style="stop-color:#021732"/>
			</linearGradient>
			<path class="st80" d="M679.6,817.6c-2.2-3.8-5-8.9-8.5-15.1c-1.2-2.1-2.9-4.3-4.8-5.2c-5.7-2.5-10.4-6-14.3-10.4
				c-5.6-6.4-9.3-11-11-13.8c-1.3-2.1-3-2.7-5.2-1.7c-16.9,7.5-34.4,13.2-52.7,17.1c-5.4,1.1-11.9,2.3-19.6,3.6
				c-0.8,0.1-1.3,0.8-1.3,1.6c0,3.6,1.8,5.7,5.5,6.5c0.3,0.1,0.6,0,0.8-0.3c1.8-1.9,4.4-2.1,7.1-2.7c0.9-0.2,1.8,0.6,1.7,1.5
				c-0.1,2-1,3.5-2.6,4.4c-0.5,0.3-0.5,0.9-0.1,1.3c3.1,2.6,5.8,5.2,8.1,7.9c2.7,3,5.3,5.3,8.5,8.7c1.3,1.4,2.5,1.9,4.2,0.7
				c0.4-0.3,0.6-0.8,0.5-1.3c-0.9-3.3-2.5-6-4.8-8.2c-0.5-0.5-1.3-0.7-2-0.5l-2.4,0.6c-0.5,0.2-1.1-0.3-1.1-0.8
				c0-0.6,0.4-1.2,1.1-1.7c2.6-1.7,6.3-1.8,11.2-2.6c0.5-0.1,0.8,0.1,1,0.6l3.1,10.9c0.1,0.4,0.5,0.7,1,0.6
				c17.8-4.3,35-10.6,51.8-18.9c1.2-0.6,2.2-0.3,2.9,1l1.3,2.3c0.8,1.3,0.4,2.3-0.9,2.9l-10.6,4.7c-0.6,0.3-0.8,0.7-0.5,1.3l2.2,4.9
				c0.2,0.5,0.9,0.8,1.4,0.5l16-7.2c1.1-0.5,1.9-0.2,2.5,0.8l1.7,3c0.6,1,0.3,1.7-0.7,2.2c-13.3,6.6-27,12.4-41.3,17.4
				c-7.1,2.5-14.7,4.3-22.6,5.4c-0.2,0-0.3,0.1-0.2,0.3l1.5,7.5c0,0.2,0.2,0.3,0.3,0.2c24.9-7,48.6-16.4,70.9-28.2
				C679.9,819.2,680.1,818.5,679.6,817.6z M600.3,798.2c-4.6,1-8.8,1.8-12.7,2.5c-2.3,0.4-3.5-0.3-3.6-2.2c0-0.1,0-0.1,0-0.1
				c-0.4-2,0.2-3.2,2-3.6c18.9-4.4,35.9-10,51.1-16.7c0.8-0.3,1.7,0,2,0.8l1.4,3.1c0.4,0.9,0.2,1.5-0.7,1.9
				C626.7,790.2,613.8,795.3,600.3,798.2z M648.1,794.8c-3,2-6.6,3.8-10.6,5.6c-8.1,3.5-16.6,6.6-25.3,9.5c-1.7,0.5-2.9,0-3.6-1.6
				l-0.7-1.5c-0.7-1.6-0.2-2.6,1.4-3.2c11-3.7,22.7-8.5,34.9-14.2c0.7-0.3,1.2-0.2,1.7,0.4l2.5,3.5
				C648.8,793.9,648.7,794.4,648.1,794.8z"/>
			<linearGradient id="SVGID_72_" gradientUnits="userSpaceOnUse" x1="482.0849" y1="238.058" x2="482.0849" y2="871.1401">
				<stop  offset="0" style="stop-color:#34CEFE"/>
				<stop  offset="0.3317" style="stop-color:#34CEFE"/>
				<stop  offset="0.4257" style="stop-color:#2295C3"/>
				<stop  offset="1" style="stop-color:#021732"/>
			</linearGradient>
			<path class="st81" d="M513.6,792.6c-2.3-0.6-6.7-1.5-13.1-2.8c-12.1-2.4-28.7-7.2-49.8-14.4c-1.1-0.4-1.6,0-1.4,1.2l0.4,2.5
				c0.2,1.1,0.9,2,1.9,2.4c7,3.1,13,5.4,18.1,7c11.8,3.6,25.6,6.8,41.5,9.5c1.2,0.2,2.4-0.4,2.8-1.6l0.7-1.8
				C515.2,793.7,514.8,792.9,513.6,792.6z"/>
			<linearGradient id="SVGID_73_" gradientUnits="userSpaceOnUse" x1="475.1344" y1="238.058" x2="475.1344" y2="871.1401">
				<stop  offset="0" style="stop-color:#34CEFE"/>
				<stop  offset="0.3317" style="stop-color:#34CEFE"/>
				<stop  offset="0.4257" style="stop-color:#2295C3"/>
				<stop  offset="1" style="stop-color:#021732"/>
			</linearGradient>
			<path class="st82" d="M479.6,798.7c-9.3-2.4-18.5-5.3-27.8-8.8c-0.8-0.3-1.5-0.2-2.2,0.2l-4.9,2.8c-0.7,0.4-0.7,0.8,0.1,1.1
				c17.4,7.7,35.1,12.9,52.9,15.6c0.2,0,0.3,0,0.5-0.1l8-5.2c0,0,0-0.1,0-0.1C492.9,801.7,484.1,799.8,479.6,798.7z"/>
			<linearGradient id="SVGID_74_" gradientUnits="userSpaceOnUse" x1="457.7319" y1="238.058" x2="457.7319" y2="871.1401">
				<stop  offset="0" style="stop-color:#34CEFE"/>
				<stop  offset="0.3317" style="stop-color:#34CEFE"/>
				<stop  offset="0.4257" style="stop-color:#2295C3"/>
				<stop  offset="1" style="stop-color:#021732"/>
			</linearGradient>
			<path class="st83" d="M491,815.6c-17.2-3.8-34.8-9-52.8-15.7c-3.6-1.4-8.6-0.8-12.9-0.7c-1.9,0-2,0.5-0.3,1.4
				c8.6,4.7,18.7,9.5,28.1,12.5c9.2,2.9,18.3,5.3,27.5,7.2c1.4,0.3,3.2,0.5,5.4,0.7c0.7,0.1,1.3-0.2,1.8-0.7l3.6-3.6
				C491.9,816.2,491.8,815.8,491,815.6z"/>
			<linearGradient id="SVGID_75_" gradientUnits="userSpaceOnUse" x1="385.2257" y1="238.058" x2="385.2257" y2="871.1401">
				<stop  offset="0" style="stop-color:#34CEFE"/>
				<stop  offset="0.3317" style="stop-color:#34CEFE"/>
				<stop  offset="0.4257" style="stop-color:#2295C3"/>
				<stop  offset="1" style="stop-color:#021732"/>
			</linearGradient>
			<path class="st84" d="M396.6,800l-2.1,0.1c-1.2,0.1-2.3,0.7-3,1.8l-2.4,3.6c-0.4,0.5-1,0.7-1.6,0.4c-2.5-1.3-4.6-2.3-6.1-3.1
				c-2.5-1.3-5-1.1-7.8-1.4c-0.6-0.1-0.9,0.6-0.6,1c0.5,0.7,1,1.2,1.6,1.7c3.3,2.6,7.8,5.8,13.3,9.8c0.4,0.3,1.1,0.2,1.4-0.3
				l8.2-12.3C398,800.4,397.7,800,396.6,800z"/>
			<linearGradient id="SVGID_76_" gradientUnits="userSpaceOnUse" x1="434.3697" y1="238.058" x2="434.3697" y2="871.1401">
				<stop  offset="0" style="stop-color:#34CEFE"/>
				<stop  offset="0.3317" style="stop-color:#34CEFE"/>
				<stop  offset="0.4257" style="stop-color:#2295C3"/>
				<stop  offset="1" style="stop-color:#021732"/>
			</linearGradient>
			<path class="st85" d="M470.9,840.2c-18.6-3.7-34.8-10.2-53.1-18.4c-3.9-1.8-7.4-3.5-10.5-5.3c-0.9-0.5-1.2-1.7-0.7-2.6l1.5-2.6
				c0.7-1.2,1.6-1.5,2.9-0.8c5.1,2.7,8.9,4.6,11.3,5.7c1.2,0.6,2.4,1,3.7,1.2c0.5,0.1,1-0.2,1.2-0.7l1.5-4.7
				c0.1-0.4-0.1-0.8-0.4-0.9c-3.6-1.6-7.3-3.5-11.2-5.9c-2-1.2-3.2-2.6-3.7-4c-0.1-0.4-0.4-0.6-0.8-0.6c-2.1-0.2-3.8-0.2-5,0.2
				c-0.5,0.2-0.9,0.5-1.2,1l-9.5,16.5c-0.2,0.4-0.1,0.9,0.3,1.1c10.2,5.1,19.7,10.1,30,14.3c13.2,5.4,26.6,10,40.3,13.9
				c0.9,0.3,1.5,0,1.9-0.9l2.2-4.8C472.1,840.9,471.9,840.4,470.9,840.2z"/>
			<linearGradient id="SVGID_77_" gradientUnits="userSpaceOnUse" x1="690.7704" y1="238.058" x2="690.7704" y2="871.1401">
				<stop  offset="0" style="stop-color:#34CEFE"/>
				<stop  offset="0.3317" style="stop-color:#34CEFE"/>
				<stop  offset="0.4257" style="stop-color:#2295C3"/>
				<stop  offset="1" style="stop-color:#021732"/>
			</linearGradient>
			<path class="st86" d="M698.5,808.2c-1-0.3-2.1-0.5-3.3-0.6c-4.4-0.3-8.3-1.4-11.8-3.2c-0.8-0.5-1-0.3-0.5,0.6l4.7,8.2
				c0.3,0.5,0.9,0.7,1.4,0.4l9.6-4.8C699,808.5,699,808.3,698.5,808.2z"/>
			<linearGradient id="SVGID_78_" gradientUnits="userSpaceOnUse" x1="456.3891" y1="238.058" x2="456.3891" y2="871.1401">
				<stop  offset="0" style="stop-color:#34CEFE"/>
				<stop  offset="0.3317" style="stop-color:#34CEFE"/>
				<stop  offset="0.4257" style="stop-color:#2295C3"/>
				<stop  offset="1" style="stop-color:#021732"/>
			</linearGradient>
			<path class="st87" d="M479,827.7c-9.6-2.5-20.2-5.5-31.9-9.2c-3.4-1.1-6.8-2.3-10.1-3.7c-0.7-0.3-1.2-0.1-1.5,0.6l-2.3,4.4
				c-0.3,0.6-0.2,1.1,0.5,1.3c13.1,4.8,21,7.6,23.9,8.4c4.4,1.3,10.4,2.7,18.2,4.2c0.8,0.1,1.5-0.2,1.9-0.9l1.9-3.7
				C479.9,828.3,479.7,827.9,479,827.7z"/>
		</g>
		<path class="st19" d="M574.4,860.7L574,861c-0.3,0.3-0.5,0.2-0.6-0.2c-0.1-0.5-0.3-0.9-0.6-1.2c-2.7-2.8-4.7-5.9-7.3-8.7
			c-4.9-5.3-9.9-10-14.8-13.9c-3.5-2.8-7-6.3-10.6-9.3c-1.7-1.4-3-1.5-4.5,0.1c-3.6,3.9-6.8,6.6-11.7,11.1c-2.7,2.5-4.7,5.4-7.2,7.3
			c-1.5,1.2-2.7,2.4-3.6,3.6c-1.4,2.1-4.5,4.5-6,7.5c-0.7,1.4-1.4,2.7-2,4.1c-1.1,0.5-2.2,0.7-3.4,0.5c0.6-2.1,1-4.2,2.1-6.1
			c2.9-4.7,4.9-7.7,6.1-8.9c4.5-4.8,13.7-13.3,27.6-25.5c0.3-0.2,0.5-0.2,0.8,0c10.1,8.9,16,14.2,17.8,15.8
			C563.2,843.4,571.6,851.7,574.4,860.7L574.4,860.7z"/>
		<linearGradient id="SVGID_79_" gradientUnits="userSpaceOnUse" x1="537.9331" y1="149.9222" x2="537.9331" y2="354.4277">
			<stop  offset="0" style="stop-color:#FFFDFF"/>
			<stop  offset="0.3317" style="stop-color:#FFDC7A"/>
			<stop  offset="0.4257" style="stop-color:#E89E45"/>
			<stop  offset="1" style="stop-color:#FEBD58"/>
		</linearGradient>
		<path class="st88" d="M575.5,225.9c-2.2-8.1-8.1-15.3-14.3-21.3c-5-4.9-10.4-10-16.3-15.4c-2.2-2-4.4-4.4-6.6-7.3
			c-0.4-0.5-1.1-0.4-1.4,0.2c-0.4,1.1-1.1,2.1-2,3c-5.6,5.7-8.8,9.3-14.1,14.2c-3.2,3-7.7,7.7-13.5,14.1c-4.2,4.6-6.7,9.6-7.6,15.1
			c0.2,0,0.2,0.2,0.1,0.6c-0.5,6.9,1.6,12.2,6.1,15.9c7.2,5.8,16.4,4.6,22.4-2.1c2-2.3,3.9-4.8,5.6-7.6c0.4-0.7,1.1-1.1,1.9-1.1
			l5.6-0.1c0.4,0,0.8,0.2,1,0.6c3.5,6.7,7.1,12.4,15.1,13.7c4.5,0.8,8.1,0.2,10.7-1.6c5.9-4.1,8.5-10.1,7.8-17.9
			C576.1,227.7,575.9,226.7,575.5,225.9z"/>
		<linearGradient id="SVGID_80_" gradientUnits="userSpaceOnUse" x1="538.1348" y1="149.9266" x2="538.1348" y2="354.4257">
			<stop  offset="0" style="stop-color:#FFFDFF"/>
			<stop  offset="0.3317" style="stop-color:#FFDC7A"/>
			<stop  offset="0.4257" style="stop-color:#E89E45"/>
			<stop  offset="1" style="stop-color:#FEBD58"/>
		</linearGradient>
		<path class="st89" d="M595.7,226.9c-2.2-17.1-11.3-29-23.8-40.1c-9.3-8.1-18.1-16.6-26.5-25.6c-2.8-3-5-6.5-7.4-9.9
			c-0.2-0.3-0.7-0.3-0.9,0.1c-0.5,1.1-1.2,2.3-2,3.5c-5.8,8.5-12,15-19.8,22.3c-17.4,16.2-33.4,29.7-35,52.3
			c0,14.2,5.4,26.2,17.5,34.3c9.7,6.5,23.7,7.1,33.9,0.7c0.4-0.3,1,0,1,0.6l0.1,50.9l0,12.1c0,1-0.4,1.8-1.3,2.4
			c-5.2,3.8-8.5,9.3-8.8,15.8c-0.1,2.7,0.6,4.6,2.2,5.9l26,0.4c1-0.5,1.7-1.4,2.1-2.5c2.8-8.8-1.7-14.5-8-19.8
			c-0.8-0.7-1.2-1.6-1.2-2.7c0-4.7-0.1-9.4-0.1-14l-0.1-48.7c0-0.4,0.4-0.6,0.7-0.4c10.2,6.5,24.5,5.9,34.4-0.6
			c10.5-6.9,17.3-19.5,17.1-32.3L595.7,226.9z M545.4,345c0,3.8-3.1,6.9-6.9,6.9c-3.8,0-6.9-3.1-6.9-6.9s3.1-6.9,6.9-6.9
			C542.3,338.1,545.4,341.2,545.4,345z M581.7,246.6c-3.8,5.8-8.9,9.6-15.3,11.4c-10.4,2.9-20.6-2.2-25.7-11.2
			c-0.8-1.5-1.6-2.7-2.2-3.7c-0.2-0.3-0.4-0.3-0.6,0c-3,5.8-7.3,10.9-13.3,13.5c-8.3,3.5-16.3,2.2-24-3.8
			c-9.8-7.6-11.8-20.5-8.3-32.2c2.2-7.1,5.9-13.3,11.2-18.8c4.7-4.8,10.5-10.5,17.4-17.1c2.9-2.8,8.3-8.3,16.3-16.7
			c0.2-0.2,0.5-0.2,0.7,0l15.6,15.4c7.1,6.3,13.1,11.8,17.8,16.4c7.1,6.9,11.7,15.3,13.9,24.9C586.6,232.8,585.4,240,581.7,246.6z"
			/>
		<path class="st90" d="M486,320.1c8.9-2.5,17.1-3.6,25.8-5.1c0.8-0.1,1.2-0.6,1.2-1.4v-7.2c0-0.8-0.4-1.1-1.2-1.1
			c-6.3,0.4-11.9,1.2-16.9,2.2c-15.3,3.2-31,7.9-47,14.2l10.3,6c3.3-0.2,6.5-0.9,9.8-2C474,323.7,480,321.8,486,320.1z"/>
		<path class="st90" d="M371.7,324c-0.4,0-0.6,0.2-0.7,0.5c-0.6,2-0.9,4.1-0.8,6.4l0,17.4l-0.2,15.4l0,10.2c0,0.4,0.4,0.8,0.8,0.8
			h9.4c0.3,0,0.5-0.2,0.6-0.5l0.2-7.8c-0.2-12.5-0.3-24.8-0.1-36.9C381,323.2,376.3,323.5,371.7,324z"/>
		<path class="st90" d="M421.6,373.5h8.2c0.5,0,0.9-0.4,0.9-0.9c0.1-12,0.1-25.3-0.1-40c0-2.5-0.4-4.3-1.2-5.4
			c-1.4-1.9-3.4-2.6-6-2.1c-1.8,0.4-2.7,1.9-2.7,4.4l-0.2,17.9l-0.3,24.7C420.2,372.8,420.8,373.5,421.6,373.5z"/>
		<path class="st90" d="M307.6,372.8c0,0.9,0.8,1.7,1.7,1.7l8.6-0.1c0.5,0,0.9-0.4,0.9-0.9l0.1-8.7l-0.1-17.4l-0.1-16.1l-0.2-5.6
			c0-0.8-0.7-1.5-1.5-1.6c-1.8-0.1-3.6,0.1-5.4,0.5c-1.2,0.3-2.2,1-2.8,1.9c-0.7,1-1.1,2.2-1.3,3.4V349l0.1,2.4L307.6,372.8z"/>
		<path class="st90" d="M420.1,382.2c0,0.7,0.6,1.3,1.3,1.3l8.1-0.2c0.7,0,1.3-0.6,1.3-1.3l-0.1-2.7c0-0.7-0.6-1.3-1.3-1.3l-8.1,0.2
			c-0.7,0-1.3,0.6-1.3,1.3L420.1,382.2z"/>
		<path class="st90" d="M317.7,379.6l-8.4-0.1c-0.7,0-1.3,0.6-1.3,1.3l0,2.9c0,0.7,0.6,1.3,1.3,1.3l8.4,0.1c0.7,0,1.3-0.6,1.3-1.3
			l0-2.9C319,380.2,318.4,379.6,317.7,379.6z"/>
		<path class="st90" d="M379.8,385.1c0.5,0,0.9-0.4,0.9-0.9l0-3.5c0-0.5-0.4-0.9-0.9-0.9l-8.4,0c-0.5,0-0.9,0.4-0.9,0.9l0,3.5
			c0,0.5,0.4,0.9,0.9,0.9L379.8,385.1z"/>
		<path class="st90" d="M421.9,391.8c-0.5,0-0.8,0.3-0.9,0.8l-0.3,4c0,0.5,0.2,0.6,0.6,0.4c2.7-1.3,5-2.8,6.9-4.7
			c0.2-0.2,0.1-0.6-0.3-0.6L421.9,391.8z"/>
		<path class="st90" d="M318.7,400.5l0.1-6.7c0-0.7-0.5-1.2-1.2-1.2l-8.6-0.2c-0.2,0-0.3,0.1-0.4,0.3c-0.7,1.5-1,3.1-0.7,5
			C309.8,401.1,313.4,402,318.7,400.5z"/>
		<path class="st90" d="M370.3,393.2l0,6.8c3.6,0.3,7.1,1.3,10.5,3l0-10.1c0-0.3-0.2-0.5-0.5-0.5l-9.3,0.1
			C370.6,392.5,370.3,392.8,370.3,393.2z"/>
		<path class="st90" d="M734.9,410.1c-0.6,0.3-1.8,0.9-3.8,2c-4.3,2.3-8.9,4-13.7,5.1c-0.4,0.1-0.6,0.5-0.5,0.8l2.2,11.4
			c4.1-1.3,7.6-2.5,10.5-3.9c4-1.8,7.6-4.4,10.7-7.6l-4.7-7.7C735.4,410,735.2,409.9,734.9,410.1z"/>
		<path class="st90" d="M280.2,440.7c-0.9,1.3-1.6,2.8-1.9,4.3c-0.9,3.7-0.1,7.6,2.3,10.6c3.4,4.4,9.2,6.1,14.5,4.3
			c5.5-1.9,9.1-7.2,8.8-12.9c-0.1-2.2-0.8-4.2-2-6.1C296.9,433.2,285.4,433.1,280.2,440.7z"/>
		<path class="st90" d="M781.2,459.8c5.6,2.4,12.1,0.8,15.9-3.9c1.6-2,2.6-4.4,2.8-7c0.2-2-0.2-4-1-5.9c-1.9-4.5-6.2-7.6-11.1-8
			c-4.1-0.4-8.2,1.1-11,4.1c-1.5,1.6-2.6,3.4-3.1,5.5c-0.1,0.2-0.1,0.4-0.1,0.6C772.2,451.2,775.5,457.3,781.2,459.8z"/>
		<linearGradient id="SVGID_81_" gradientUnits="userSpaceOnUse" x1="443.904" y1="543.0165" x2="469.4147" y2="543.0165">
			<stop  offset="0" style="stop-color:#FFFDFF"/>
			<stop  offset="0.3317" style="stop-color:#FFDC7A"/>
			<stop  offset="0.4257" style="stop-color:#E89E45"/>
			<stop  offset="1" style="stop-color:#FEBD58"/>
		</linearGradient>
		<path class="st91" d="M459.2,524.8c-1.2-4.8-2.1-10.3-2.7-16.3c0-0.1,0-0.1-0.1-0.2c-0.1-0.1-0.2-0.1-0.3-0.1
			c-0.2,0-0.3,0.1-0.3,0.3c-1,3.3-1.1,7.7-1.7,10.9c-0.6,3.1-1.1,6.7-2.3,9.5c-1.7,3.8-4,7.2-7,10.3c-0.4,0.3-0.7,0.7-0.9,1
			c-0.1,0.3-0.1,0.6,0.2,0.8c4.4,4.1,7.3,9,8.6,14.7c1.7,6.9,2.8,14.2,3.3,21.9c0,0,0.1,0.1,0.2,0.2h0c0.1,0.1,0.2,0,0.2-0.2
			c0.8-8.5,2.1-16.1,4-22.9c1.2-4.4,3.6-8.5,7.2-12.3c0.7-0.6,1.3-1.3,1.7-2c0.2-0.3,0.1-0.6-0.2-0.8
			C463.8,535.1,460.7,531.3,459.2,524.8z"/>
		
			<ellipse transform="matrix(0.9972 -7.496963e-02 7.496963e-02 0.9972 -39.8902 25.0236)" class="st90" cx="313.4" cy="543.8" rx="6.7" ry="5.9"/>
		
			<ellipse transform="matrix(0.9997 -2.269307e-02 2.269307e-02 0.9997 -12.1428 17.4812)" class="st90" cx="764.2" cy="543.8" rx="6.7" ry="5.9"/>
		<g>
			<path class="st90" d="M880.7,512.4c-2.6-0.6-4.9-0.8-7-0.5c-12.5,1.7-21.2,7.9-26.2,18.7c-0.5,1.1-1.4,3.9-2.6,8.2
				c-16.6-0.1-32.8-0.2-48.9-0.2c-2.2,0-3.8,0.2-4.8,0.7c-3.5,1.6-3.9,6.7-0.7,9c0.8,0.6,2.1,0.8,4,0.8c17.2,0.1,33.8,0.2,50.1,0.2
				c1,0,1.6,0.3,2,0.9c3,14.6,16.7,23.8,31.1,22.8c4.3-0.3,8.3-1.5,12.1-3.7c8-4.6,13.3-11.8,15-21.1l0.5-8.9
				C904.4,525.6,893.8,515.6,880.7,512.4z M895.1,544.8c-0.5,4.5-2.8,8.6-6.8,12.3c-13.5,7.8-24.1,5.5-31.7-6.9
				c-1.4-4.5-1.7-8.7-0.9-12.6c3.3-15.9,23.3-20.7,34-9.3C894,532.9,895.8,538.4,895.1,544.8z"/>
			<path class="st90" d="M283.2,538.8c-8.1-0.1-24.3-0.1-48.5,0c-1.5-9.2-5.9-16.3-13.3-21.3c-16.7-11.4-39.2-3.4-45.4,16
				c-1.6,5.3-1.7,10.9-0.2,16.5c2.3,12.9,14.1,22.4,26.8,23c15.1,0.8,27.2-8.1,31-23c0.4-0.4,1-0.6,1.8-0.6
				c12.7-0.1,29.1-0.2,49.2-0.3C290.1,549.1,289.4,538.8,283.2,538.8z M224.2,548c-2.7,6.9-7.2,11.2-13.4,12.9
				c-5.8,1.6-11.4,0.9-16.6-2.1c-6.9-3.9-9.8-10.8-8.8-20.8c2.3-8.9,7.9-14.1,16.6-15.6c3.7-0.6,7.4,0.1,11.3,2.1
				c4.7,2.4,8,5.7,10,9.7C225.2,538.3,225.5,542.9,224.2,548z"/>
		</g>
		<linearGradient id="SVGID_82_" gradientUnits="userSpaceOnUse" x1="541.7758" y1="443.0944" x2="541.7758" y2="631.3449">
			<stop  offset="0" style="stop-color:#FFFDFF"/>
			<stop  offset="0.3317" style="stop-color:#FFDC7A"/>
			<stop  offset="0.4257" style="stop-color:#E89E45"/>
			<stop  offset="1" style="stop-color:#FEBD58"/>
		</linearGradient>
		<path class="st92" d="M601.6,544.9c-4.1-6.7-10.3-10.6-18.4-11.9c-0.3-0.1-0.3-0.2-0.1-0.4l4.1-3.2c9.3-8.1,11.8-19.5,9.6-31
			c0-0.3-0.1-0.5-0.2-0.6c-2.6-13.3-12.8-23.7-25.7-27.5c-8.5-2.5-14.1-2.3-22.8-2.3c-0.3,0-0.6-0.3-0.6-0.6v-14.6
			c0-0.2-0.2-0.3-0.3-0.3l-12,0.2c-0.3,0-0.5,0.2-0.5,0.5l0.2,13.6c0,0.6-0.3,0.9-0.9,0.9l-17.5,0.2c-0.6,0-1.1-0.5-1.1-1.1
			l0.2-13.6c0-0.3-0.3-0.6-0.6-0.6l-12.4,0.2c-0.2,0-0.3,0.1-0.3,0.3l0.2,13.8c0,0.4-0.3,0.7-0.7,0.7l-25.2,0.3
			c-0.2,0-0.4,0.2-0.4,0.4c0.3,5.6,0.3,11.3,0.2,17.1c0,0.5,0.1,0.9,0.3,1c0.3,0.2,0.7,0.2,1.3,0.1l7.4,0.1l0.2,98l-4.8,2.4
			c-0.9,1.9-1.3,4.1-1.3,6.6c0,1.2,0.1,2.5,0.3,3.9l-0.2,7.5c0,0.5,0.4,0.9,0.8,0.9h20.6c1,0,1.5,0.5,1.5,1.5l0.2,16.5
			c0,0.6,0.5,1.2,1.2,1.1l10.7-0.1c0.6,0,1-0.5,1-1v-16.4c0-0.9,0.7-1.6,1.6-1.6h16.2c0.6,0,1,0.5,1,1v17c0,0.7,0.6,1.2,1.2,1.2
			l10.8-0.1c0.7,0,1.3-0.6,1.3-1.3l-0.2-16.3c0-1,0.8-1.9,1.9-1.9l15.7-0.4c16.2-1.8,33-9.9,39.2-26.1l0.9-2.5
			C608.8,565,607.6,554.5,601.6,544.9z M511.5,491.6l0.1-4.7c0-0.3,0.2-0.5,0.5-0.5c12.8,0,25.5,0,38.2-0.1c3.1,0,6,0.4,8.8,1.2
			c7.7,2.4,13.4,9.4,14,17.7c0.3,3.8,0.3,7.6-1.3,11.1c-3.1,7-8.6,10.6-16.5,10.8c-4.5,0.1-13.9,0.1-28.3-0.1c-0.3,0-0.7,0-1,0
			l-13.9,0c-0.4,0-0.7-0.3-0.7-0.7L511.5,491.6z M567.5,582.9c-3.9,1.3-7.1,1.9-9.5,1.9c-15-0.1-30.5-0.2-46.3-0.1l-0.2-23.6
			l-0.1-13.5c0-0.4,0.3-0.7,0.7-0.7c16.3,0,32.8,0,49.3,0c7.5,0,13.2,2.7,17,8.1C584.6,566.3,579.6,578.9,567.5,582.9z"/>
		<path class="st90" d="M796.3,635.7c-2.7-4.6-7.9-7.2-13.2-6.5c-2.6,0.4-5,1.5-6.9,3.3c-1,1-1.9,2.1-2.6,3.4
			c-0.3,0.6-0.6,1.3-0.8,1.9c-1.8,5.4,0.2,11.5,4.9,14.8c3.7,2.7,8.5,3.2,12.6,1.5c5.5-2.3,8.6-8,7.6-13.9
			C797.7,638.6,797.1,637.1,796.3,635.7z"/>
		<path class="st90" d="M302.8,633.5c-2.8-3.2-6.9-4.7-11.1-4.2c-5.1,0.7-9.4,4.4-10.9,9.4c-0.1,0.5-0.3,0.9-0.3,1.4
			c-0.9,5.1,1.2,10.2,5.5,13c3.3,2.2,7.5,2.7,11.3,1.3c6.3-2.3,10-9.2,8.3-15.7C305,636.8,304.1,635,302.8,633.5z"/>
		<g>
			<linearGradient id="SVGID_83_" gradientUnits="userSpaceOnUse" x1="646.4545" y1="256.9254" x2="646.4545" y2="401.3434">
				<stop  offset="0" style="stop-color:#FFFDFF"/>
				<stop  offset="0.3317" style="stop-color:#FFDC7A"/>
				<stop  offset="0.4257" style="stop-color:#E89E45"/>
				<stop  offset="1" style="stop-color:#FEBD58"/>
			</linearGradient>
			<path class="st93" d="M649.4,374.5l-12.6,3.5c-0.3,0.1-0.4,0.3-0.3,0.6c1.4,4.8,3.4,9.6,5.9,14.4l2.8,5.1
				c0.2,0.3,0.4,0.4,0.8,0.2l10.3-6c0.3-0.2,0.3-0.4,0.2-0.7c-0.5-1.3-1.1-2.4-1.8-3.2c-2.1-4.4-3.6-8.9-4.6-13.5
				C650,374.6,649.8,374.4,649.4,374.5z"/>
			<linearGradient id="SVGID_84_" gradientUnits="userSpaceOnUse" x1="679.0425" y1="186.4734" x2="679.0425" y2="315.9627">
				<stop  offset="0" style="stop-color:#FFFDFF"/>
				<stop  offset="0.3317" style="stop-color:#FFDC7A"/>
				<stop  offset="0.4257" style="stop-color:#E89E45"/>
				<stop  offset="1" style="stop-color:#FEBD58"/>
			</linearGradient>
			<path class="st94" d="M667.1,303.3l6.3,9.7c0.2,0.3,0.5,0.4,0.8,0.2c5.5-3.1,11.1-5.5,16.8-7.3c0.6-0.2,1-0.8,0.9-1.4l-1.1-9.1
				c0.1-1.5-0.3-2.6-1-3.3c-0.2-0.2-0.5-0.3-0.9-0.3c-8.3,1.3-15.8,4.4-22.5,9.3c-0.3,0.2-0.4,0.5-0.3,0.8
				C666.3,302.4,666.6,302.9,667.1,303.3z"/>
			<linearGradient id="SVGID_85_" gradientUnits="userSpaceOnUse" x1="730.5141" y1="188.5527" x2="730.5141" y2="315.5771">
				<stop  offset="0" style="stop-color:#FFFDFF"/>
				<stop  offset="0.3317" style="stop-color:#FFDC7A"/>
				<stop  offset="0.4257" style="stop-color:#E89E45"/>
				<stop  offset="1" style="stop-color:#FEBD58"/>
			</linearGradient>
			<path class="st95" d="M718.2,306.3c5.8,0.9,10.9,3.7,16.3,6.6c0.3,0.2,0.7,0.1,0.9-0.2l7.7-10c0.1-0.2,0.2-0.4,0.1-0.7
				c-0.1-0.6-0.5-1-1.1-1.3c-6.9-4.6-14.2-7.5-22.1-8.7c-0.3-0.1-0.6,0.1-0.7,0.4c-0.4,1-0.6,2.3-0.7,3.9l-1,9.3
				C717.6,306,717.9,306.3,718.2,306.3z"/>
			<linearGradient id="SVGID_86_" gradientUnits="userSpaceOnUse" x1="704.3319" y1="-185.8347" x2="704.3319" y2="424.3479">
				<stop  offset="0" style="stop-color:#FFFDFF"/>
				<stop  offset="0.3317" style="stop-color:#FFDC7A"/>
				<stop  offset="0.4257" style="stop-color:#E89E45"/>
				<stop  offset="1" style="stop-color:#FEBD58"/>
			</linearGradient>
			<path class="st96" d="M746.9,333.7c-8-12.4-21.5-20-35.9-22.3c-22.5-3.5-47,11.7-54.1,33.3c-3.7,9.3-3.3,20.9-0.9,30.6
				c0.5,2.5,1.3,4.8,2.2,6.7c6.8,14.5,17.8,24,33,28.6c2.5,0.8,5.3,1.2,8.2,1.2c7.8,0.1,13.8,0.6,20.5-1.7
				c16-5.5,28.8-17.6,32.3-34.5l1.3-5.8C755.6,357.2,753.9,344.3,746.9,333.7z M727.9,377.4c-1.9,1.1-3.8,1.6-5.8,1.4
				c-3.8-0.3-7.7-0.9-11.7-1.7c-0.5-0.1-1,0.4-0.8,0.9c1,3.7,3.1,10.1,6.4,12c1.2,0.7,1.1,1.1-0.4,1.2c-7.4,0.5-14.9,0.6-22.5,0.1
				c-1.7-0.1-1.8-0.6-0.3-1.4c3-1.8,5.3-8.7,6.1-12c0.1-0.5-0.3-0.9-0.8-0.8c-4.8,0.9-8.1,1.5-9.9,1.7c-5.1,0.8-9.2-0.9-12.1-4.9
				c-3.3-4.6-3.1-9.3,0.7-14c5.1-6.4,10.2-12.7,15.2-19.1l11.4-14.7c0.3-0.4,1-0.4,1.3,0l5.7,7.3c7,8.8,14,17.5,21.1,26.1
				c1,1.2,2,2.8,3.1,4.8C735.2,370.1,733.1,374.4,727.9,377.4z"/>
			<linearGradient id="SVGID_87_" gradientUnits="userSpaceOnUse" x1="763.5243" y1="206.4246" x2="763.5243" y2="350.6006">
				<stop  offset="0" style="stop-color:#FFFDFF"/>
				<stop  offset="0.3317" style="stop-color:#FFDC7A"/>
				<stop  offset="0.4257" style="stop-color:#E89E45"/>
				<stop  offset="1" style="stop-color:#FEBD58"/>
			</linearGradient>
			<path class="st97" d="M773.6,344.7c-1.8-7.2-4.7-14-8.8-20.5c-0.3-0.5-0.9-0.6-1.3-0.3l-9.8,7c-0.3,0.2-0.4,0.6-0.2,0.9l5.8,13.9
				c0,0.4,0,0.9,0.2,1.6c0.1,0.3,0.3,0.4,0.6,0.4l6.2-1.2l6.6-0.8C773.4,345.6,773.7,345.2,773.6,344.7z"/>
			<linearGradient id="SVGID_88_" gradientUnits="userSpaceOnUse" x1="645.7009" y1="205.8468" x2="645.7009" y2="350.748">
				<stop  offset="0" style="stop-color:#FFFDFF"/>
				<stop  offset="0.3317" style="stop-color:#FFDC7A"/>
				<stop  offset="0.4257" style="stop-color:#E89E45"/>
				<stop  offset="1" style="stop-color:#FEBD58"/>
			</linearGradient>
			<path class="st98" d="M636,345.4l11.9,2.3c0.4,0.1,0.7-0.1,0.9-0.5l7-16.2c0.1-0.2,0.1-0.4-0.1-0.6c-0.4-0.4-0.9-0.7-1.5-0.7
				l-8.7-5.8c-0.6-0.4-1.4-0.2-1.8,0.4c-3.6,5.9-6.2,12.2-8,19c-0.2,0.5-0.3,1-0.3,1.4C635.5,345.2,635.7,345.4,636,345.4z"/>
			<linearGradient id="SVGID_89_" gradientUnits="userSpaceOnUse" x1="762.751" y1="259.1953" x2="762.751" y2="401.398">
				<stop  offset="0" style="stop-color:#FFFDFF"/>
				<stop  offset="0.3317" style="stop-color:#FFDC7A"/>
				<stop  offset="0.4257" style="stop-color:#E89E45"/>
				<stop  offset="1" style="stop-color:#FEBD58"/>
			</linearGradient>
			<path class="st99" d="M772.4,377.5l-12.6-2.5c-0.3,0-0.5,0.1-0.6,0.3l-4.1,10.9l-1.9,3.9c-0.6,1.2-0.3,2.1,0.9,2.8l9.6,5.5
				c0.2,0.1,0.4,0.1,0.5-0.1l2.8-5.3c2.8-4.8,4.7-9.9,5.7-15.2C772.7,377.6,772.6,377.5,772.4,377.5z"/>
			<linearGradient id="SVGID_90_" gradientUnits="userSpaceOnUse" x1="680.2829" y1="307.1775" x2="680.2829" y2="434.289">
				<stop  offset="0" style="stop-color:#FFFDFF"/>
				<stop  offset="0.3317" style="stop-color:#FFDC7A"/>
				<stop  offset="0.4257" style="stop-color:#E89E45"/>
				<stop  offset="1" style="stop-color:#FEBD58"/>
			</linearGradient>
			<path class="st100" d="M689.6,431.7c0.4,0.1,0.6,0,0.6-0.4l1.5-13.3c0-0.3-0.2-0.7-0.5-0.7c-5.4-1.1-10.5-3.2-15.3-6.3
				c-0.8-0.5-1.8-0.2-2.2,0.5l-4.7,8.1c-0.2,0.4-0.2,0.9,0.1,1.3C674,426.3,682.5,429.8,689.6,431.7z"/>
		</g>
		<g>
			<linearGradient id="SVGID_91_" gradientUnits="userSpaceOnUse" x1="396.0631" y1="154.4222" x2="396.0631" y2="1014.571">
				<stop  offset="0" style="stop-color:#FFFDFF"/>
				<stop  offset="0.3317" style="stop-color:#FFDC7A"/>
				<stop  offset="0.4257" style="stop-color:#E89E45"/>
				<stop  offset="1" style="stop-color:#FEBD58"/>
			</linearGradient>
			<path class="st101" d="M463.7,216.3c-37.8,10.5-73.1,26.7-105.9,48.4c-10.2,6.8-20.5,14.7-30.9,23.6c-0.2,0.2-0.2,0.3,0.1,0.4
				l10.9,4.4c0.4,0.2,0.9,0.1,1.3-0.2c4.7-3.5,9.6-7.3,14.8-11.2c5.3-4,12.2-8.6,20.7-13.8c10-6.1,16.6-9.9,19.6-11.7
				c20.5-11.5,46.2-20.8,69.6-28.3c0.6-0.2,1-0.7,1-1.4l0.5-9.1C465.4,216.7,464.6,216,463.7,216.3z"/>
			<linearGradient id="SVGID_92_" gradientUnits="userSpaceOnUse" x1="665.0244" y1="154.4222" x2="665.0244" y2="1014.571">
				<stop  offset="0" style="stop-color:#FFFDFF"/>
				<stop  offset="0.3317" style="stop-color:#FFDC7A"/>
				<stop  offset="0.4257" style="stop-color:#E89E45"/>
				<stop  offset="1" style="stop-color:#FEBD58"/>
			</linearGradient>
			<path class="st102" d="M613.3,227.7c2.7,1.1,6.4,2.7,9.2,3.6c22.1,7.1,42.9,16.1,62.5,26.9c6.2,3.4,12.2,6.9,18,10.4
				c0,0,0.1,0,0.1,0l14.1-3.9c0.4-0.1,0.4-0.3,0.1-0.5c-20.4-13.4-41.5-24.7-63.3-34.1c-4.9-2.1-10.5-4.2-17-6.4
				c-10.4-3.5-16.4-5.7-23.1-7c-0.7-0.1-1.4,0.4-1.4,1.2v8.5C612.5,226.9,612.8,227.4,613.3,227.7z"/>
			<linearGradient id="SVGID_93_" gradientUnits="userSpaceOnUse" x1="828.5245" y1="154.4222" x2="828.5245" y2="1014.571">
				<stop  offset="0" style="stop-color:#FFFDFF"/>
				<stop  offset="0.3317" style="stop-color:#FFDC7A"/>
				<stop  offset="0.4257" style="stop-color:#E89E45"/>
				<stop  offset="1" style="stop-color:#FEBD58"/>
			</linearGradient>
			<path class="st103" d="M790,347.1c-0.1,0.5,0,1.1,0.4,1.5c8.9,10.5,17.7,21.7,25,33.2c12.6,19.9,22.6,41,30.3,63.4
				c4.2,12.8,7.6,25.7,10.1,38.9c0.4,2.3,1.3,4.4,3,6.1c0.7,0.6,1.6,0.7,2.4,0.3c1.8-1.1,3.1-2.1,3.9-2.9c1.8-1.6,2.5-3.6,2.1-5.9
				c-2.1-14.1-5.6-27.8-10.4-41.3c-5.8-16.8-12.1-31.7-19.1-44.5c-11.2-20.5-25.8-41-44-61.4c-1.6-1.7-2.7-2.8-3.3-3.2
				c-0.4-0.2-0.5-0.1-0.5,0.3c0,2.8,0.3,5.5,0.7,8.2C790.9,342.5,790.4,344.9,790,347.1z"/>
			<linearGradient id="SVGID_94_" gradientUnits="userSpaceOnUse" x1="250.3739" y1="154.4222" x2="250.3739" y2="1014.571">
				<stop  offset="0" style="stop-color:#FFFDFF"/>
				<stop  offset="0.3317" style="stop-color:#FFDC7A"/>
				<stop  offset="0.4257" style="stop-color:#E89E45"/>
				<stop  offset="1" style="stop-color:#FEBD58"/>
			</linearGradient>
			<path class="st104" d="M217.6,490.8c0.3,0.1,0.6,0.1,0.8-0.1c1.7-1.9,2.7-3.6,3-5.2c2.4-12.5,4.3-21.3,5.7-26.2
				c5.3-18.4,12.4-36.3,21.4-53.6c2.4-4.6,5.7-10.4,9.9-17.3c7.5-12.3,13.6-21.7,21.2-30.1c4.9-5.4,8.6-10,11.1-14
				c0.2-0.3,0.2-0.5,0.2-0.8l-1.8-11.1c-0.1-0.5-0.6-0.7-1-0.4c-2,1.4-3.7,2.8-5.2,4.5c-29.7,32.5-51.3,69.7-64.9,111.5
				c-3.9,11.8-6.9,24.6-8.1,35.6C209.5,486.5,214.9,489.4,217.6,490.8z"/>
			<linearGradient id="SVGID_95_" gradientUnits="userSpaceOnUse" x1="337.0787" y1="154.4222" x2="337.0787" y2="1014.571">
				<stop  offset="0" style="stop-color:#FFFDFF"/>
				<stop  offset="0.3317" style="stop-color:#FFDC7A"/>
				<stop  offset="0.4257" style="stop-color:#E89E45"/>
				<stop  offset="1" style="stop-color:#FEBD58"/>
			</linearGradient>
			<path class="st105" d="M463.7,864.6c-3.4-1.2-10.1-3.6-20.3-7.1c-30.4-10.5-58.7-25.1-84.8-43.9c-9.2-6.6-16.2-12-21.2-16.2
				c-1.2-1.1-3.4-1.5-6.6-1.4c-0.9,0-2.6-0.5-5.2-1.5c-8.9-3.6-14.6-12.2-16.5-21.5c-0.3-1.2-1.2-2.8-2.1-3.8
				c-6.7-7.2-13.1-14.7-19.3-22.4c-8.3-10.5-15.7-21-22.4-31.4c-8.2-12.8-15.5-26.5-22-41c-4.5-10.3-7.2-16.9-8.4-20
				c-4-10.6-7.4-22.3-10.4-35c-2.4-10.6-3.5-20.4-5.4-30.9c-0.1-0.8-1.1-1.3-1.8-0.8c-3.1,1.9-5.9,4.3-8.2,7.2
				c-0.2,0.3-0.3,0.6-0.3,0.9c0.2,3.9,1,9.7,2.4,17.6c4.3,23.3,11.2,45.5,20.6,66.5c7.5,17.3,16.3,33.4,26.4,48.3
				c5.4,7.9,12,16.8,19.7,26.8c2.5,3.3,6.1,7.6,10.8,12.8c14.2,15.8,28.2,29.9,44.2,42.4c14.8,11.6,29.2,21.5,43.3,29.9
				c23.3,13.8,47.9,24.7,73.8,32.7c0.7,0.2,5.4,1.5,14,4c0.5,0.1,0.9-0.2,0.9-0.7l-0.7-10.1C464.5,865.2,464.2,864.7,463.7,864.6z"
				/>
			<linearGradient id="SVGID_96_" gradientUnits="userSpaceOnUse" x1="740.4708" y1="154.4222" x2="740.4708" y2="1014.571">
				<stop  offset="0" style="stop-color:#FFFDFF"/>
				<stop  offset="0.3317" style="stop-color:#FFDC7A"/>
				<stop  offset="0.4257" style="stop-color:#E89E45"/>
				<stop  offset="1" style="stop-color:#FEBD58"/>
			</linearGradient>
			<path class="st106" d="M866.2,592.1c-0.8-0.8-2.7-2.3-5.7-4.8c-0.3-0.2-0.5-0.2-0.7,0.1c-1.7,1.9-2.6,3.6-2.8,5
				c-3.1,26-9.6,51.1-19.5,75.3c-7.9,18.6-17.5,36.4-28.8,53.3v0c-6.3,9.3-14.7,20.6-25.1,33.8c-12.8,16.2-24.9,29-40.3,41
				c-15.2,11.9-30.4,22.5-45.5,31.9c-9.4,5.8-19,11-28.8,15.4c-15.4,7-34,13.9-55.6,20.8c-0.3,0.1-0.5,0.3-0.5,0.7l-0.2,10.7
				c0,0.7,0.3,0.9,1,0.7c21.7-6.1,43-14.1,64-23.8c13.8-6.4,27.4-14.3,40.9-23.6c12.5-8.6,21.8-15.3,27.9-20.3
				c15.7-12.6,30.3-26.9,43.9-42.8c7.5-8.9,15.6-19.4,24.2-31.5v0c7.7-11.8,12.9-20,15.8-24.8c4.5-7.6,9.1-16.6,13.9-27.1
				c11.2-23.8,18.2-48.3,22.6-74.1c0.6-3.4,1-6.9,1.3-10.4C868.3,595.4,867.7,593.5,866.2,592.1z"/>
		</g>
		<path class="st90" d="M550.3,722.6c-3-4.1-8.5-6.1-13.8-5.2c-15.3,2.6-18.1,22.3-4.4,29.6c0.1,0.1,0.2,0.2,0.2,0.3l0.6,42.2
			c0,0.3,0.3,0.5,0.6,0.4c2.9-1.2,6-1.3,9-0.2c0.7,0.3,1.5-0.3,1.5-1.1l-0.5-39.6c0-0.5,0.2-0.9,0.5-1.2c2.3-2,5.1-3.7,6.5-5.8
			C555.1,735.5,555,729,550.3,722.6z M538.6,739.4c-3.8,0-6.8-3.1-6.8-6.8c0-3.8,3-6.8,6.8-6.8c3.8,0,6.8,3,6.8,6.8
			C545.4,736.3,542.3,739.4,538.6,739.4z"/>
		<path class="st90" d="M593.7,854.5c-1.9-6.8-5.3-12.9-10-18.3c-7-8-15.8-15.2-24.4-22.2c-7.5-6.1-14.7-13-21-18.6
			c-0.3-0.2-0.5-0.2-0.8,0c-8.3,7.8-19.2,17.5-32.6,29.1c-5.5,4.8-9.3,8.5-11.4,11c-5.9,7.1-10.5,15.7-12.1,25l-0.5,7
			c0.9,13.2,6.2,23,15.7,29.4c11.1,7.5,23.6,7.9,35.2,1.4c0.5-0.3,1.1,0.1,1.1,0.6v25.4c0,0.6,0.3,1.2,0.8,1.6
			c1,0.8,2.2,1.7,3.4,2.7c0.7,0.5,1.4,0.5,2.1,0.1c2.4-1.5,4.5-2.5,4.5-5.6c0-8.2,0-16.3,0.1-24.4c0-0.5,0.6-0.9,1-0.6
			c6.7,4.5,14,5.8,22,4.2c11.2-2.3,19.3-8.6,24.6-18.9C595.7,874.3,596.4,864.7,593.7,854.5z M583.1,876.3
			c-2.1,5.3-5.9,9.4-11.3,12.4c-14.8,8.1-26.2,0.7-33.3-12.5c-0.1-0.2-0.4-0.2-0.5,0c-3.8,7.3-8.5,12.8-16.7,15
			c-11,3.1-20.9-3.1-26.6-12.4c-7.1-11.7-2.9-27.2,5.7-36.8c2.4-2.6,6.9-7.6,10.5-10.5c9.5-7.6,19.3-16.4,26.7-23.6
			c0.1-0.1,0.3-0.1,0.4,0c7.3,6.9,15.9,14.3,25.9,22.3c3.6,2.8,7.3,6.5,11.3,11C583.9,851,588,864,583.1,876.3z"/>
		<path class="st90" d="M574.4,860.7L574,861c-0.3,0.3-0.5,0.2-0.6-0.2c-0.1-0.5-0.3-0.9-0.6-1.2c-2.7-2.8-4.7-5.9-7.3-8.7
			c-4.9-5.3-9.9-10-14.8-13.9c-3.5-2.8-7-6.3-10.6-9.3c-1.7-1.4-3-1.5-4.5,0.1c-3.6,3.9-6.8,6.6-11.7,11.1c-2.7,2.5-4.7,5.4-7.2,7.3
			c-1.5,1.2-2.7,2.4-3.6,3.6c-1.4,2.1-4.5,4.5-6,7.5c-0.7,1.4-1.4,2.7-2,4.1c-1.1,0.5-2.2,0.7-3.4,0.5c-1.9,9.7,4.1,20.8,14.9,19.9
			c6.6-0.6,11.6-4.1,15.1-10.6c0.8-1.6,1.6-2.7,3.1-3.1c2.5-0.7,4.9-0.8,7.2-0.2c0.3,0.1,0.7,0.3,0.9,0.6c0.4,0.5,1,1.6,1.8,3.1
			c2.4,4.5,5.7,7.6,10,9.3c6.1,2.4,12.9,0.8,17-4.6c2.6-3.4,3.6-7.5,2.9-12.1C574.8,862.9,574.7,861.7,574.4,860.7z"/>
	</g>
	<g>
		<g>
			<g>
				<path d="M329.4,672.7h95c1.6,0.7,2.9,1.9,3.8,3.2v104.2c-0.9,1.4-2.2,2.5-3.7,3.2h-95c-1.6-0.8-2.9-1.9-3.8-3.2V675.9
					C326.6,674.5,327.9,673.4,329.4,672.7z M329.5,673.7c-1.8,0.5-2.9,2.2-2.7,3.8c0,33.7,0,67.3,0,101c-0.3,2,1.7,4,4.1,3.9
					c30.6,0,61.2,0,91.8,0c2.3,0.2,4.7-1.4,4.6-3.5c0-33.8,0-67.6,0-101.4c0.3-2-1.7-4-4.1-3.9c-30.1,0-60.2,0-90.2,0
					C331.7,673.6,330.6,673.5,329.5,673.7z"/>
			</g>
			<g>
				<path d="M330.5,690.5c3.1-2.7,3.6-6.8,5.9-9.9c1.8,2.7,2.9,5.7,4.6,8.5c0.4,0.6,1,1,1.5,1.4c-1.7,0.2-3.4,0.1-5.1,0.1
					c0.3-0.5,0.9-0.7,1.5-0.9c-0.3-0.7-0.6-1.4-0.9-2.1c-1.4-0.1-2.7-0.1-4.1,0.1c-0.2,0.6-0.4,1.2-0.5,1.8c0.4,0.4,0.8,0.8,1.2,1.2
					C333.2,690.6,331.8,690.6,330.5,690.5z M334.6,686.5c0.9,0.1,1.9,0.1,2.8,0.1c-0.4-0.8-0.7-1.6-1.1-2.4
					C335.1,684.2,335.2,685.8,334.6,686.5z"/>
			</g>
			<path d="M332.8,695.6c1-1.5,2.5-2.7,3.7-4.2c1.4,2,4.5,3.4,4.2,6c-0.1,1.5-1.9,2-3.3,1.5c0.2,0.4,0.4,0.8,0.6,1.2c-1,0-2,0-3,0
				c0.3-0.6,0.6-1.1,0.9-1.7c-0.6,0.2-1.3,0.9-2,0.6C332.3,698.6,332.1,696.8,332.8,695.6z"/>
			<path d="M376.1,708c3,3.7,6.4,7.1,9.9,10.4c3.5,3.4,7.3,6.7,9.3,11c1.6,3.4,1.5,7.3-0.5,10.6c-1.5,2.4-4.5,4-7.7,4.1
				c-2.1,0.1-4.5-0.2-5.9-1.7c-1.6-1.8-1.8-4.2-1.9-6.4c0.1-0.5-0.2-1.3-0.9-1.2c-0.8,0.5-0.5,1.4-0.6,2.1c0.1,2.9,0.3,5.9,2,8.5
				c0.8,1.3,1.6,2.6,2.3,4c-4,0-8,0-12,0c1.1-2.5,3-4.6,3.6-7.2c0.5-2.2,0.7-4.4,0.6-6.6c0.1-0.7-1.1-1.2-1.3-0.3
				c-0.3,2.6-0.3,5.5-2.6,7.4c-3.4,2.5-9.2,1.6-11.4-1.7c-3.2-4.7-2.3-10.7,1.1-15.1C364.8,719.5,371.5,714.4,376.1,708z"/>
			<path d="M415,756.8c1,0,1.9,0,2.9,0c-0.2,0.4-0.3,0.8-0.5,1.2c1.3-0.1,3,0.1,3.2,1.4c0.5,2.7-2.7,4.2-4.1,6.2
				c-1.4-2-4.7-3.7-3.9-6.4c0.3-1.3,2.1-1.4,3.3-0.8C415.5,757.9,415.2,757.3,415,756.8z"/>
			<g>
				<path d="M410.6,767.1c1.8,0,3.6-0.3,5.3,0.3c-0.4,0.2-1.2,0.5-1.6,0.7c0.4,0.7,0.5,1.5,1.1,2.1c1.2,0.1,2.3,0.1,3.5,0
					c0.7-0.5,0.7-1.4,1.1-2c-0.4-0.2-1.2-0.6-1.6-0.8c1.4-0.5,2.9-0.2,4.3-0.3c-2.7,2.3-3.4,5.7-5.1,8.5c-0.3,0.4-0.5,1.6-1.2,1.1
					c-1.5-2.5-2.6-5.2-4-7.7C412.1,768.2,411.2,767.7,410.6,767.1z M415.8,771c0.4,1,0.8,2,1.5,2.8c0.4-0.9,0.9-1.9,1.3-2.8
					C417.6,771,416.7,771,415.8,771z"/>
			</g>
		</g>
		<g>
			<g>
				<linearGradient id="SVGID_97_" gradientUnits="userSpaceOnUse" x1="376.9352" y1="648.2241" x2="376.9352" y2="782.3152">
					<stop  offset="0" style="stop-color:#FFFDFF"/>
					<stop  offset="0.3317" style="stop-color:#FFDC7A"/>
					<stop  offset="0.4257" style="stop-color:#E89E45"/>
					<stop  offset="1" style="stop-color:#FEBD58"/>
				</linearGradient>
				<path class="st107" d="M329.5,673.7c1.1-0.3,2.3-0.2,3.4-0.2c30.1,0,60.2,0,90.2,0c2.4-0.1,4.3,1.9,4.1,3.9
					c0,33.8,0,67.6,0,101.4c0.1,2.1-2.2,3.7-4.6,3.5c-30.6,0-61.2,0-91.8,0c-2.4,0.1-4.3-1.9-4.1-3.9c0-33.7,0-67.3,0-101
					C326.5,675.9,327.7,674.2,329.5,673.7z M330.5,690.5c1.3,0.1,2.7,0.1,4.1,0.1c-0.4-0.4-0.8-0.8-1.2-1.2c0.1-0.6,0.4-1.2,0.5-1.8
					c1.3-0.1,2.7-0.1,4.1-0.1c0.3,0.7,0.6,1.4,0.9,2.1c-0.6,0.2-1.2,0.4-1.5,0.9c1.7,0.1,3.4,0.1,5.1-0.1c-0.5-0.5-1.1-0.9-1.5-1.4
					c-1.6-2.8-2.7-5.8-4.6-8.5C334.1,683.7,333.6,687.8,330.5,690.5z M332.8,695.6c-0.7,1.1-0.5,3,1.1,3.4c0.8,0.3,1.4-0.4,2-0.6
					c-0.3,0.6-0.6,1.1-0.9,1.7c1,0,2,0,3,0c-0.2-0.4-0.4-0.8-0.6-1.2c1.4,0.4,3.2-0.1,3.3-1.5c0.2-2.6-2.8-4-4.2-6
					C335.3,692.9,333.8,694.1,332.8,695.6z M376.1,708c-4.6,6.4-11.3,11.5-16,17.8c-3.4,4.4-4.4,10.5-1.1,15.1
					c2.2,3.3,8.1,4.2,11.4,1.7c2.4-1.9,2.4-4.9,2.6-7.4c0.2-0.9,1.4-0.3,1.3,0.3c0.1,2.2-0.1,4.4-0.6,6.6c-0.6,2.6-2.5,4.8-3.6,7.2
					c4,0,8,0,12,0c-0.7-1.4-1.5-2.7-2.3-4c-1.6-2.6-1.9-5.6-2-8.5c0.1-0.7-0.2-1.6,0.6-2.1c0.7-0.1,1,0.7,0.9,1.2
					c0.1,2.2,0.2,4.6,1.9,6.4c1.4,1.5,3.8,1.7,5.9,1.7c3.2-0.1,6.2-1.7,7.7-4.1c2-3.2,2-7.2,0.5-10.6c-2-4.3-5.8-7.6-9.3-11
					C382.5,715.1,379.1,711.7,376.1,708z M415,756.8c0.2,0.5,0.5,1,0.8,1.5c-1.1-0.6-2.9-0.5-3.3,0.8c-0.8,2.7,2.5,4.4,3.9,6.4
					c1.4-2,4.7-3.5,4.1-6.2c-0.2-1.4-1.9-1.6-3.2-1.4c0.2-0.4,0.3-0.8,0.5-1.2C416.9,756.8,416,756.8,415,756.8z M410.6,767.1
					c0.6,0.6,1.5,1.1,1.8,1.9c1.4,2.6,2.5,5.2,4,7.7c0.8,0.5,0.9-0.8,1.2-1.1c1.6-2.9,2.3-6.2,5.1-8.5c-1.5,0-3-0.2-4.3,0.3
					c0.4,0.2,1.2,0.6,1.6,0.8c-0.4,0.7-0.4,1.5-1.1,2c-1.2,0.1-2.3,0.1-3.5,0c-0.6-0.6-0.8-1.4-1.1-2.1c0.4-0.2,1.2-0.5,1.6-0.7
					C414.2,766.7,412.4,767.1,410.6,767.1z"/>
			</g>
			<linearGradient id="SVGID_98_" gradientUnits="userSpaceOnUse" x1="336.0315" y1="648.2241" x2="336.0315" y2="782.3152">
				<stop  offset="0" style="stop-color:#FFFDFF"/>
				<stop  offset="0.3317" style="stop-color:#FFDC7A"/>
				<stop  offset="0.4257" style="stop-color:#E89E45"/>
				<stop  offset="1" style="stop-color:#FEBD58"/>
			</linearGradient>
			<path class="st108" d="M334.6,686.5c0.6-0.7,0.4-2.3,1.7-2.3c0.4,0.8,0.8,1.6,1.1,2.4C336.5,686.6,335.6,686.6,334.6,686.5z"/>
			<linearGradient id="SVGID_99_" gradientUnits="userSpaceOnUse" x1="417.1626" y1="648.2241" x2="417.1626" y2="782.3152">
				<stop  offset="0" style="stop-color:#FFFDFF"/>
				<stop  offset="0.3317" style="stop-color:#FFDC7A"/>
				<stop  offset="0.4257" style="stop-color:#E89E45"/>
				<stop  offset="1" style="stop-color:#FEBD58"/>
			</linearGradient>
			<path class="st109" d="M415.8,771c0.9,0,1.8,0,2.8,0c-0.4,1-0.8,1.9-1.3,2.8C416.6,773,416.2,772,415.8,771z"/>
		</g>
	</g>
</g>
</svg>
