<svg width="105" height="104" viewBox="0 0 105 104" fill="none" xmlns="http://www.w3.org/2000/svg">
<g clip-path="url(#clip0_22_3978)">
<path d="M52.6665 100C79.1762 100 100.667 78.5097 100.667 52C100.667 25.4903 79.1762 4 52.6665 4C26.1568 4 4.6665 25.4903 4.6665 52C4.6665 78.5097 26.1568 100 52.6665 100Z" fill="white"/>
<g clip-path="url(#clip1_22_3978)">
<path d="M37.7017 70.3745H26.6782V45.725C26.6782 45.1116 27.1755 44.6143 27.7889 44.6143H36.591C37.2044 44.6143 37.7017 45.1116 37.7017 45.725V70.3745Z" fill="#80B342"/>
<path d="M58.1783 70.3745H47.1548V40.8661C47.1548 40.2527 47.652 39.7554 48.2655 39.7554H57.0676C57.681 39.7554 58.1783 40.2527 58.1783 40.8661V70.3745Z" fill="#80B342"/>
<path d="M78.6543 70.3745H67.6309V47.496C67.6309 46.8825 68.1281 46.3853 68.7416 46.3853H77.5436C78.1571 46.3853 78.6543 46.8825 78.6543 47.496V70.3745Z" fill="#80B342"/>
<path d="M84.67 78.2833H20.663C19.5604 78.2833 18.6665 77.3894 18.6665 76.2868C18.6665 75.1842 19.5604 74.2903 20.663 74.2903H84.67C85.7726 74.2903 86.6665 75.1842 86.6665 76.2868C86.6665 77.3894 85.7727 78.2833 84.67 78.2833Z" fill="#80B342"/>
<path d="M85.8309 33.314C85.8972 32.4796 85.4109 31.455 84.2972 31.1958L77.8466 29.6279C76.7748 29.3667 75.6955 30.0248 75.4352 31.0963C75.1747 32.1677 75.832 33.2474 76.9035 33.5078L78.728 33.9512L73.5561 37.1428L53.9459 25.9785C53.3821 25.6573 52.6969 25.6303 52.1099 25.9062L32.6171 35.0557L23.2989 29.2401C22.3636 28.6559 21.132 28.9413 20.5481 29.8767C19.9644 30.812 20.2495 32.0435 21.1849 32.6274L31.4249 39.0182C31.9995 39.3769 32.7169 39.4197 33.3303 39.1318L52.8698 29.9604L72.6096 41.1986C73.1232 41.468 73.8392 41.6076 74.6459 41.1625L80.9155 37.2935L80.4979 39.249C80.0385 41.8501 83.7207 42.5888 84.4028 40.083L85.7867 33.6019C85.8023 33.5109 85.8083 33.5237 85.8309 33.314Z" fill="#80B342"/>
</g>
</g>
<rect x="2.6665" y="2" width="100" height="100" rx="50" stroke="black" stroke-opacity="0.08" stroke-width="4"/>
<defs>
<clipPath id="clip0_22_3978">
<rect x="4.6665" y="4" width="96" height="96" rx="48" fill="white"/>
</clipPath>
<clipPath id="clip1_22_3978">
<rect width="68" height="68" fill="white" transform="translate(18.6665 18)"/>
</clipPath>
</defs>
</svg>
