<svg width="105" height="104" viewBox="0 0 105 104" fill="none" xmlns="http://www.w3.org/2000/svg">
<g clip-path="url(#clip0_22_3995)">
<path d="M52.3335 100C78.8432 100 100.333 78.5097 100.333 52C100.333 25.4903 78.8432 4 52.3335 4C25.8238 4 4.3335 25.4903 4.3335 52C4.3335 78.5097 25.8238 100 52.3335 100Z" fill="white"/>
<g clip-path="url(#clip1_22_3995)">
<path d="M52.3335 45.2504C58.9027 45.2504 64.228 39.925 64.228 33.3558C64.228 26.7867 58.9027 21.4613 52.3335 21.4613C45.7643 21.4613 40.439 26.7867 40.439 33.3558C40.439 39.925 45.7643 45.2504 52.3335 45.2504Z" fill="#009CD3"/>
<path d="M76.396 45.2502C80.5489 45.2502 83.9155 41.8836 83.9155 37.7307C83.9155 33.5777 80.5489 30.2111 76.396 30.2111C72.2431 30.2111 68.8765 33.5777 68.8765 37.7307C68.8765 41.8836 72.2431 45.2502 76.396 45.2502Z" fill="#009CD3"/>
<path d="M28.271 45.2502C32.4239 45.2502 35.7905 41.8836 35.7905 37.7307C35.7905 33.5777 32.4239 30.2111 28.271 30.2111C24.1181 30.2111 20.7515 33.5777 20.7515 37.7307C20.7515 41.8836 24.1181 45.2502 28.271 45.2502Z" fill="#009CD3"/>
<path d="M35.6798 52.0029C32.7198 49.5778 30.0392 49.8988 26.6167 49.8988C21.498 49.8988 17.3335 54.0386 17.3335 59.1259V74.057C17.3335 76.2663 19.1368 78.0628 21.3544 78.0628C30.9283 78.0628 29.7749 78.2361 29.7749 77.6499C29.7749 67.0698 28.5217 59.3109 35.6798 52.0029Z" fill="#009CD3"/>
<path d="M55.5889 49.9533C49.611 49.4547 44.415 49.9591 39.9333 53.6584C32.4333 59.6658 33.8766 67.7545 33.8766 77.6498C33.8766 80.2678 36.0067 82.4377 38.6645 82.4377C67.5234 82.4377 68.672 83.3686 70.3833 79.5789C70.9445 78.2973 70.7907 78.7046 70.7907 66.4443C70.7907 56.7064 62.3588 49.9533 55.5889 49.9533Z" fill="#009CD3"/>
<path d="M78.0504 49.8987C74.6092 49.8987 71.9433 49.5809 68.9873 52.0028C76.0919 59.2565 74.8922 66.4861 74.8922 77.6498C74.8922 78.2396 73.9347 78.0627 83.1691 78.0627C85.466 78.0627 87.3336 76.202 87.3336 73.9147V59.1258C87.3336 54.0385 83.1691 49.8987 78.0504 49.8987Z" fill="#009CD3"/>
</g>
</g>
<rect x="2.3335" y="2" width="100" height="100" rx="50" stroke="black" stroke-opacity="0.08" stroke-width="4"/>
<defs>
<clipPath id="clip0_22_3995">
<rect x="4.3335" y="4" width="96" height="96" rx="48" fill="white"/>
</clipPath>
<clipPath id="clip1_22_3995">
<rect width="70" height="70" fill="white" transform="translate(17.3335 17)"/>
</clipPath>
</defs>
</svg>
