<svg width="50" height="51" viewBox="0 0 50 51" fill="none" xmlns="http://www.w3.org/2000/svg">
<g clip-path="url(#clip0_22_3092)">
<path fill-rule="evenodd" clip-rule="evenodd" d="M25.0225 18.4091L34.366 23.8365L34.3735 23.8322L43.7266 18.4048L39.0495 15.6901L34.3735 12.9753L34.3629 12.9817L29.6974 15.6901L25.0225 18.4048V18.4091Z" fill="#EC1C24"/>
<path fill-rule="evenodd" clip-rule="evenodd" d="M34.366 23.8364L25.0225 18.4091V23.8343V29.2585V29.2638L29.6974 31.9796L34.3735 34.6944L34.3851 34.6869L34.3735 23.8407L34.366 23.8364Z" fill="#EC1C24"/>
<path fill-rule="evenodd" clip-rule="evenodd" d="M34.373 23.8407L34.3847 34.6869L39.0491 31.9796L43.7198 29.2681L43.7262 29.2638V23.8343V18.4048L34.373 23.8322V23.8407Z" fill="#D8282F"/>
<path fill-rule="evenodd" clip-rule="evenodd" d="M6.32861 18.3803L15.6732 23.8066L15.6807 23.8034L25.0338 18.3749L20.3567 15.6613L15.6807 12.9454L15.6701 12.9518L11.0057 15.6613L6.32861 18.3749V18.3803Z" fill="#44D376"/>
<path fill-rule="evenodd" clip-rule="evenodd" d="M15.6732 23.8066L6.32861 18.3802V23.8044V29.2286V29.235L11.0057 31.9497L15.6807 34.6645L15.6923 34.6581L15.6807 23.8119L15.6732 23.8066Z" fill="#2DBE60"/>
<path fill-rule="evenodd" clip-rule="evenodd" d="M15.6807 23.812L15.6923 34.6582L20.3567 31.9498L25.0274 29.2383L25.0338 29.2351V23.8045V18.375L15.6807 23.8034V23.812Z" fill="#A5CD39"/>
<path fill-rule="evenodd" clip-rule="evenodd" d="M15.6797 34.7158L25.0254 40.1431L25.0328 40.1378L34.3849 34.7115L29.7088 31.9957L25.0328 29.282L25.0222 29.2873L20.3557 31.9957L15.6797 34.7115V34.7158Z" fill="#00ADEE"/>
<path fill-rule="evenodd" clip-rule="evenodd" d="M25.0254 40.1431L15.6797 34.7157V40.1409V45.5651V45.5704L20.3557 48.2852L25.0328 50.9999L25.0445 50.9925L25.0328 40.1473L25.0254 40.1431Z" fill="#00ADEE"/>
<path fill-rule="evenodd" clip-rule="evenodd" d="M25.0327 40.1475L25.0444 50.9926L29.7087 48.2853L34.3795 45.5748L34.3848 45.5706V40.1411V34.7115L25.0327 40.1379V40.1475Z" fill="#009AD2"/>
<path fill-rule="evenodd" clip-rule="evenodd" d="M15.6436 23.685L24.9903 29.1113L24.9977 29.107L34.3487 23.6796L29.6727 20.9649L24.9977 18.2501L24.9861 18.2565L20.3206 20.9649L15.6436 23.6796V23.685Z" fill="#FFCA05"/>
<path fill-rule="evenodd" clip-rule="evenodd" d="M24.9903 29.1114L15.6436 23.6851V29.1092V34.5334V34.5398L20.3206 37.2535L24.9977 39.9693L25.0083 39.9618L24.9977 29.1156L24.9903 29.1114Z" fill="#E9AB2C"/>
<path fill-rule="evenodd" clip-rule="evenodd" d="M24.998 29.1156L25.0087 39.9618L29.673 37.2534L34.3437 34.543L34.349 34.5398V29.1092V23.6797L24.998 29.1071V29.1156Z" fill="#D59532"/>
<path fill-rule="evenodd" clip-rule="evenodd" d="M19.2778 3.32277L24.9913 6.64021L24.9977 6.63808L30.7154 3.31957L27.8555 1.65979L24.9977 0L24.9903 0.0042668L22.1378 1.65979L19.2778 3.31957V3.32277Z" fill="#00ADEE"/>
<path fill-rule="evenodd" clip-rule="evenodd" d="M24.9913 6.64019L19.2778 3.32275V6.63913V9.9555V9.95976L22.1378 11.6195L24.9977 13.2793L25.0041 13.2751L24.9977 6.64339L24.9913 6.64019Z" fill="#009CD3"/>
<path fill-rule="evenodd" clip-rule="evenodd" d="M24.998 6.64342L25.0044 13.2751L27.8559 11.6196L30.7115 9.96085L30.7158 9.95979V6.63915V3.31958L24.998 6.63808V6.64342Z" fill="#0079AC"/>
<path fill-rule="evenodd" clip-rule="evenodd" d="M5.72092 46.8622V40.2273L5.71668 40.2252L0 36.9045V40.2252V43.5447L0.00530403 43.5479L2.85887 45.2045L5.71774 46.8643L5.72092 46.8622Z" fill="#D8282E"/>
<path fill-rule="evenodd" clip-rule="evenodd" d="M5.72119 40.2274V46.8623L8.57688 45.2047L11.4336 43.547L11.4368 43.5449V40.2253V36.9047L11.4283 36.9004L5.72119 40.2232V40.2274Z" fill="#B22930"/>
<path fill-rule="evenodd" clip-rule="evenodd" d="M5.72092 40.2232L11.4281 36.9004L8.57661 35.2449L5.72092 33.5872L5.71774 33.5851L2.85887 35.2449L0 36.9047L5.71668 40.2253L5.72092 40.2232Z" fill="#EC1C24"/>
<path fill-rule="evenodd" clip-rule="evenodd" d="M49.9989 36.8993L44.2843 40.2178V40.2221L44.2822 46.8612L47.1422 45.2003L50 43.5395V43.5331V40.2199V36.9014L49.9989 36.8993Z" fill="#21AE52"/>
<path fill-rule="evenodd" clip-rule="evenodd" d="M44.2843 40.2178L49.9989 36.8993L47.1421 35.2417L44.2854 33.584L44.2822 33.5819L41.4233 35.2417L38.5645 36.9015V36.91L44.279 40.2189L44.2843 40.2178Z" fill="#3ED773"/>
<path fill-rule="evenodd" clip-rule="evenodd" d="M44.279 40.2188L38.5645 36.9099V40.2199V43.5373V43.5395L41.4233 45.2003L44.2822 46.8612L44.2843 40.222L44.279 40.2188Z" fill="#2DBE60"/>
</g>
<defs>
<clipPath id="clip0_22_3092">
<rect width="50" height="51" fill="white"/>
</clipPath>
</defs>
</svg>
